<?xml version="1.0" encoding="UTF-8"?>
<!DOCTYPE svg PUBLIC "-//W3C//DTD SVG 1.1//EN" "http://www.w3.org/Graphics/SVG/1.1/DTD/svg11.dtd">
<!-- Creator: CorelDRAW -->
<svg xmlns="http://www.w3.org/2000/svg" xml:space="preserve" width="2.5in" height="1in" style="shape-rendering:geometricPrecision; text-rendering:geometricPrecision; image-rendering:optimizeQuality; fill-rule:evenodd; clip-rule:evenodd"
viewBox="0 0 0.209677 0.0838709"
 xmlns:xlink="http://www.w3.org/1999/xlink">
 <defs>
  <style type="text/css">
   <![CDATA[
    .fil0 {fill:none}
    .fil3 {fill:#201E1E}
    .fil4 {fill:#A83B3F}
    .fil2 {fill:#201E1E;fill-rule:nonzero}
    .fil1 {fill:#A83B3F;fill-rule:nonzero}
   ]]>
  </style>
 </defs>
 <g id="Layer_x0020_1">
  <metadata id="CorelCorpID_0Corel-Layer"/>
  <polygon class="fil0" points="-0,0 0.209677,0 0.209677,0.0838709 -0,0.0838709 "/>
  <g id="_891206176">
   <g>
    <path id="_891233056" class="fil1" d="M0.0956339 0.0107256l0.0011666 0 0 0.037137 -0.00232098 0c-0.000829793,0 -0.00256169,0.000144297 -0.00521947,0.000421005l0 -0.000637617c0.0012749,-0.000324587 0.00223678,-0.000925881 0.00289817,-0.00179167 0.000673608,-0.00088989 0.00113061,-0.00191219 0.00137099,-0.0030669 0.000252603,-0.00121448 0.000385013,-0.00380027 0.000385013,-0.00774485l0 -0.0147679c0,-0.00340337 -0.000456997,-0.00574879 -0.00137099,-0.00701147 -0.000913994,-0.00127457 -0.00200828,-0.00204427 -0.00328318,-0.00232098l0 -0.000637286c0.00143109,9.60883e-005 0.00355989,0.000228499 0.00637385,0.000420675zm0.0177988 0.037137l-0.0140946 0 0 -0.037137 0.0102461 0c0.00193629,0 0.00556817,-0.000144297 0.0109319,-0.000420675 -4.82092e-005,0.000697383 -7.23138e-005,0.00122669 -7.23138e-005,0.00158727 0,0.000469215 6.00964e-005,0.0015635 0.000168402,0.00327129 7.23138e-005,0.00115438 0.000108306,0.00176789 0.000108306,0.00186398l0 0.00088989 -0.000601295 0c-0.000842011,-0.0020205 -0.00180388,-0.00333106 -0.00288628,-0.00392047 -0.0010824,-0.000565303 -0.00311478,-0.000842011 -0.00609715,-0.000842011l-0.00560449 0c-0.00088989,0 -0.00170747,6.04266e-005 -0.00246527,0.00018062 -0.000421005,0.000793801 -0.000661391,0.00269377 -0.000733375,0.00570025l-7.23138e-005 0.00239329 0 0.00574846 0.00761244 0c0.00286251,0 0.00476248,-0.000252603 0.00570058,-0.000745592 0.000949986,-0.000492989 0.00169558,-0.00165959 0.00226088,-0.00352357l0.000769697 0c-0.000180289,0.00211658 -0.000276708,0.00395646 -0.000276708,0.00549585 0,0.000998195 7.23138e-005,0.00228499 0.000216611,0.00388448 3.59918e-005,0.000468884 9.60883e-005,0.0013951 0.000168402,0.00277797l-0.000769697 0c-0.000216611,-0.00206837 -0.000842011,-0.00348757 -0.0018762,-0.00425727 -0.0010464,-0.000781584 -0.00270599,-0.0011666 -0.00496687,-0.0011666l-0.00883913 0 0 0.00768475c0,0.00295859 0.000168402,0.00555628 0.000492989,0.00778117 0.000986308,0.000144297 0.0020446,0.000216281 0.00317488,0.000216281l0.00535189 0c0.00291005,0 0.00511084,-0.000324587 0.00659014,-0.000985978 0.00155161,-0.000685496 0.00307879,-0.00220078 0.00458219,-0.00454587l0.000697383 0c-0.000252603,0.00108207 -0.000637286,0.00232098 -0.00115438,0.00373985 -0.000637617,0.00182799 -0.00109461,0.00341559 -0.00138321,0.00475059 -0.00266967,-0.000276708 -0.00506296,-0.000421005 -0.00717954,-0.000421005z"/>
    <g>
     <path id="_381448864" class="fil2" d="M0.130523 0.0448022l0 -0.0180375c0,-0.000961213 -0.00014925,-0.00172133 -0.000454686,-0.00226682 -0.000305105,-0.000545491 -0.00101338,-0.00101966 -0.00211757,-0.0014225l0 -0.000746913 0.00619026 -0.00203304 0.000740309 0 0 0.0238051c0,0.000987299 0.000110287,0.00167577 0.000331191,0.00205252 0.000220904,0.000383362 0.000792481,0.000571577 0.00170185,0.000571577l0.000519735 0 0 0.00104574 -0.00948335 0 0 -0.00104574 0.00046129 0c0.000746913,0 0.00128613,-0.000155855 0.00161732,-0.000474168 0.000331191,-0.000318313 0.000493649,-0.000798754 0.000493649,-0.00144826zm0.00186398 -0.000779603l0 -0.0171476c0,-0.000902767 -3.89636e-005,-0.00161732 -0.000123165,-0.00215621 -8.45313e-005,-0.000539217 -0.000318313,-0.000993903 -0.000701675,-0.00135745 -0.000389636,-0.000357277 -0.00100678,-0.000539217 -0.00185738,-0.000539217 -0.000415722,0 -0.000753517,1.28778e-005 -0.00100678,3.89636e-005 0.00116891,0.000331191 0.00187058,0.000818236 0.00210437,0.00146147 0.000233782,0.000649504 0.000350673,0.00150043 0.000350673,0.00255245l0 0.01781c0,0.000864134 -0.000259868,0.001546 -0.000779273,0.00203965 0.000883286,-3.89636e-005 0.00144165,-0.000279349 0.00166916,-0.000734035 0.000227178,-0.000448082 0.000344069,-0.00110419 0.000344069,-0.00196799zm0.0189928 -0.00085753l0 -0.0108339 -0.00203304 0 0 -0.000967817c0.00111046,-0.000838048 0.00194851,-0.00148095 0.00250688,-0.00192903 0.000558699,-0.000448412 0.00109131,-0.000954939 0.00159157,-0.00151364 0.000499923,-0.000558369 0.000928853,-0.00113655 0.00128613,-0.00174709l0.00100678 0 0 0.00496225 0.00472186 0 0 0.00119532 -0.00472186 0 0 0.0113863c0,0.000837718 0.000103683,0.00146114 0.000305105,0.00187686 0.000201422,0.000409448 0.000545491,0.000617144 0.00102626,0.000617144 0.000454686,0 0.000877012,-0.000129769 0.00126665,-0.000383362 0.000383032,-0.000253264 0.0008572,-0.0006429 0.0014159,-0.00117551l0.000707949 0.000740639c-0.000954609,0.000974091 -0.00182502,0.00170152 -0.0026175,0.00217569 -0.000792481,0.000474168 -0.00170185,0.000714553 -0.00273472,0.000714553 -0.000974091,0 -0.00173421,-0.0002143 -0.0022797,-0.000649504 -0.000545491,-0.0004286 -0.000922249,-0.00101338 -0.00113655,-0.0017603 -0.000208026,-0.000740309 -0.000311709,-0.00164341 -0.000311709,-0.00270863zm0.00186398 -0.0140619l-0.00125344 0.00104541 0 0.0126335c0,0.00168864 0.000220574,0.00291633 0.000655778,0.00368272 0.000435204,0.000766395 0.00122108,0.00114976 0.00235136,0.00114976 0.000597662,0 0.00118872,-9.08051e-005 0.00178638,-0.000279349 -0.00115636,3.89636e-005 -0.00203304,-0.000233782 -0.00263731,-0.000811962 -0.000603936,-0.000571577 -0.000902767,-0.00153279 -0.000902767,-0.00287736l0 -0.0145427zm0.0235905 0.013945l0.000760121 0.000591058c-0.000571577,0.00106523 -0.00124717,0.00194224 -0.00203304,0.00263071 -0.000792481,0.000681863 -0.00165628,0.00118872 -0.00259802,0.00151991 -0.000948335,0.000331191 -0.00193563,0.000493649 -0.0029619,0.000493649 -0.00139642,0 -0.00268915,-0.000337795 -0.00389075,-0.00100678 -0.00119499,-0.00067559 -0.00214333,-0.00164341 -0.00284501,-0.00290972 -0.000694741,-0.00127325 -0.00104574,-0.00270863 -0.00104574,-0.00431935 0,-0.00127325 0.00021463,-0.00246197 0.000636626,-0.00357904 0.0004286,-0.00111707 0.00101338,-0.00209809 0.00177318,-0.00294869 0.000753517,-0.000850926 0.00163053,-0.00151364 0.0026241,-0.00198781 0.000993903,-0.000474168 0.00205913,-0.000714223 0.0031894,-0.000714223 0.00113655,0 0.00222786,0.000240056 0.0032604,0.000714223 0.00103287,0.000474168 0.00185771,0.00113028 0.00246164,0.00196832 0.000448412,0.00061054 0.000766395,0.00123396 0.000961543,0.00187686 0.000201092,0.00064323 0.000350673,0.00140962 0.000467564,0.00231239l-0.0114903 0c5.21716e-005,0.00131849 0.000273076,0.00243589 0.00067559,0.00334526 0.00039624,0.000915645 0.000922249,0.00164968 0.00155888,0.00220838 0.00064323,0.000558369 0.00132509,0.000954609 0.00204592,0.00119499 0.000721157,0.000240386 0.00141623,0.000363881 0.00207201,0.000363881 0.00159784,0 0.00305931,-0.000584785 0.00437779,-0.00175402zm-0.00336441 -0.00657957l0.0013317 0c-3.92938e-005,-0.0014225 -0.000331521,-0.00246825 -0.000877012,-0.00315011 -0.000545491,-0.000682194 -0.00145486,-0.00113028 -0.00274099,-0.00136406 0.000811962,0.000370154 0.00139642,0.000850926 0.00175369,0.00144198 0.000357277,0.000591058 0.000532613,0.00148722 0.000532613,0.00268882l0 0.000383362zm-0.00724856 0l0.00663801 0 0 -0.000630022c0,-0.000734035 -0.000136373,-0.00139014 -0.000402844,-0.00196799 -0.000266141,-0.000578181 -0.000630022,-0.00101999 -0.00109098,-0.0013317 -0.00046129,-0.000311709 -0.000993903,-0.000467564 -0.00159157,-0.000467564 -0.000961213,0 -0.00177945,0.0004286 -0.00245504,0.00128613 -0.000668986,0.0008572 -0.00103914,0.00189007 -0.00109759,0.00311115zm0.000168732 -0.00374777c-0.00237084,0.00187719 -0.00355956,0.00433223 -0.00355956,0.00737865 0,0.00220838 0.000708279,0.00401391 0.00212418,0.00541066 0.00140929,0.00140269 0.0030461,0.00210437 0.0048972,0.00210437 0.00107843,0 0.00216314,-0.000220904 0.00324785,-0.000656108 0.00108471,-0.000435204 0.00200035,-0.00108471 0.00274727,-0.00194851 -0.000772669,0.000493649 -0.00156515,0.000896494 -0.00237051,0.0012082 -0.000805358,0.000311709 -0.0017669,0.000467564 -0.00288397,0.000467564 -0.00189007,0 -0.00346215,-0.000662382 -0.00472847,-0.0019812 -0.00126004,-0.00131849 -0.00189007,-0.00303322 -0.00189007,-0.00515707 0,-0.00134458 0.000207696,-0.00254617 0.000630022,-0.0036114 0.000415392,-0.00106523 0.00101305,-0.00213706 0.00178605,-0.00321516z"/>
     <path id="_381450064" class="fil1" d="M0.145364 0.0308179l0 0.0137568c0,0.000584454 5.84454e-005,0.00102626 0.00018194,0.00132509 0.000116891,0.000292227 0.000350673,0.000499923 0.000681863,0.000617144 0.000337795,0.000110287 0.00085753,0.00018161 0.00155227,0.000207696l0 0.00104574 -0.00888536 0 0 -0.00104574c0.000785877,-2.60858e-005 0.00133137,-0.00018194 0.00164341,-0.000474168 0.000311709,-0.000292227 0.000467564,-0.000811962 0.000467564,-0.00156548l0 -0.0087295c0,-0.000545491 -0.00018194,-0.00105862 -0.000552095,-0.00152652 -0.000370154,-0.000467564 -0.00088989,-0.000818236 -0.00155888,-0.00104574l0 -0.00061054 0.00569001 -0.00195479 0.000779273 0zm-0.00372829 0.00518943l0 0.00904154c0,0.000734035 -0.000259868,0.0012924 -0.000779273,0.00167577 0.000694741,0 0.00120787,-0.000155855 0.00152619,-0.000474168 0.000324917,-0.000318313 0.000487045,-0.000837718 0.000487045,-0.00156548l0 -0.00892432c0,-0.000811962 -0.000194818,-0.00143538 -0.000591058,-0.00187058 -0.000389636,-0.000441808 -0.000902767,-0.000656108 -0.00153939,-0.000656108 -0.000292227,0 -0.000526009,1.28778e-005 -0.000701345,3.23596e-005 0.00106523,0.000558699 0.00159784,0.00147467 0.00159784,0.00274099zm0.00138354 -0.0144581c0.000487045,0 0.000935127,0.000116891 0.00135745,0.000350673 0.000415722,0.000233782 0.000746913,0.000558369 0.000987299,0.000961213 0.000240386,0.000409118 0.000363881,0.000850926 0.000363881,0.00133137 0,0.000480772 -0.000123495,0.000928853 -0.000363881,0.00134458 -0.000240386,0.000409448 -0.000571577,0.000734035 -0.000987299,0.000974421 -0.000422326,0.000240386 -0.000870408,0.00036355 -0.00135085,0.00036355 -0.000727761,0 -0.00134458,-0.000266141 -0.00187091,-0.000798754 -0.000519405,-0.000532613 -0.000779273,-0.00116263 -0.000779273,-0.00188379 0,-0.000467564 0.000116891,-0.000909041 0.000357277,-0.00131849 0.000233782,-0.000415722 0.000552095,-0.000740309 0.000967817,-0.000974091 0.000409118,-0.000233782 0.000850926,-0.000350673 0.00131849,-0.000350673zm0.000324587 0.00061054c-0.000746913,0 -0.00132476,0.000175336 -0.00172761,0.000532613 -0.000409118,0.000356946 -0.00061054,0.000844322 -0.00061054,0.00146114 0,0.000597662 0.000194818,0.00108471 0.000591058,0.00147467 0.000389636,0.000383032 0.000974421,0.000597332 0.00174709,0.000636296 -0.000402514,-0.000370154 -0.000701345,-0.000694741 -0.000889559,-0.000980695 -0.000195148,-0.000285623 -0.000285953,-0.000649504 -0.000285953,-0.00109131 0,-0.00082484 0.000389636,-0.0015001 0.00117551,-0.00203271z"/>
    </g>
    <path id="_891233656" class="fil2" d="M0.12231 0.0573304l-0.000258877 0.0013099c-0.000109626,0.000542519 -0.000163779,0.000928853 -0.000163779,0.00115504 0,0.000452044 0.000438506,0.000678231 0.00131519,0.000678231 0.000869747,0 0.0016368,-0.000154864 0.00229951,-0.000464262 -0.000152883,0.00051115 -0.000405156,0.00082451 -0.000760121,0.000944373 -0.00021397,7.13232e-005 -0.000586105,0.000144297 -0.00111509,0.000220904 -0.000530302,7.66065e-005 -0.000939089,0.00011491 -0.00122438,0.00011491 -0.00111178,0 -0.00166652,-0.000368834 -0.00166652,-0.0011065 0,-0.000196469 5.38226e-005,-0.000575539 0.000163449,-0.00113589l0.000341097 -0.00171671 -7.66065e-005 0c-0.000342748,0 -0.00067658,7.46252e-005 -0.000998525,0.000224536 0.000186233,-0.000367183 0.000341097,-0.000601955 0.00046096,-0.000702996 0.000120193,-0.000102692 0.000311379,-0.000152883 0.000573888,-0.000152883l0.000167081 0 0.000499263 -0.00251381 -0.00014793 0c-0.000627711,0 -0.00121051,0.000200101 -0.00174643,0.000601955 0.000170714,-0.0005445 0.000401854,-0.000894182 0.000697713,-0.00104872 0.00023114,-0.000120193 0.000942722,-0.000179299 0.00213607,-0.000179299l0.00151859 0c0.000958241,0 0.00173586,-9.57581e-005 0.00233419,-0.000285293 -0.000267792,0.000424307 -0.000507848,0.000681863 -0.000716534,0.000773989 -0.000208687,9.21259e-005 -0.000661061,0.000137363 -0.00135844,0.000137363l-0.00164737 0 -0.000504546 0.00251381 0.00105598 0c0.000737667,0 0.00132542,-9.41071e-005 0.00176393,-0.00028001 -0.00023147,0.000431241 -0.000436855,0.000690449 -0.000617805,0.000779273 -0.000178969,8.84937e-005 -0.000601625,0.00013208 -0.00126797,0.00013208l-0.00105598 0zm0.0137159 -0.000382702c-0.000702666,0.00133599 -0.00141062,0.00238305 -0.00212055,0.00314152 -0.0007096,0.000760121 -0.00133929,0.00113952 -0.00188544,0.00113952 -0.000398552,0 -0.000718516,-0.000153213 -0.000963854,-0.00046096 -0.000245009,-0.000308077 -0.000366852,-0.00070993 -0.000366852,-0.00120556 0,-0.000278359 5.05206e-005,-0.000673278 0.000152883,-0.00118113l0.00101438 -0.00510721c-0.00013241,2.08026e-005 -0.000248971,3.1369e-005 -0.00034638,3.1369e-005 -0.000780924,0 -0.00117221,-0.000327228 -0.00117221,-0.000979374l0 -0.000116561c0.000406807,0.00023147 0.000867766,0.00034605 0.0013809,0.00034605 0.000513131,0 0.000960222,-0.000126797 0.00134491,-0.000382702l-0.00118113 0.00613182c-0.000106324,0.000549783 -0.000158496,0.000928853 -0.000158496,0.00113589 0,0.000573888 0.000210668,0.000861162 0.000631343,0.000861162 0.000408788,0 0.000819557,-0.000229819 0.00123165,-0.000690779 0.00041242,-0.00046096 0.00109065,-0.00144033 0.00203172,-0.00294307l0.000407137 0.00028001zm0.00313954 0.00203337c0,0.000995223 0.000421005,0.0014925 0.00126269,0.0014925 0.000730733,0 0.00153609,-0.000347701 0.00241641,-0.00104376 0.000879984,-0.000695732 0.00167345,-0.00161237 0.00237942,-0.00274991l0.000433223 0.000238074c-0.000666344,0.00124386 -0.00153081,0.00227178 -0.00259702,0.0030877 -0.00106457,0.000815925 -0.00207531,0.00122306 -0.0030286,0.00122306 -0.000612191,0 -0.0010956,-0.000196799 -0.00145057,-0.000591719 -0.000354965,-0.000392938 -0.000532283,-0.000932155 -0.000532283,-0.00161402 0,-0.000984657 0.000321615,-0.00182832 0.000965505,-0.00252768 0.00064356,-0.000699034 0.0014192,-0.00104872 0.00232725,-0.00104872 0.000438506,0 0.000789839,0.000109626 0.00105235,0.00033053 0.000262839,0.000220904 0.000394919,0.000516433 0.000394919,0.000886918 0,0.000607238 -0.000365201,0.00114646 -0.00109759,0.00161435 -0.000732384,0.000467894 -0.00157439,0.000702666 -0.0025257,0.000702666zm3.99542e-005 -0.000488696c0.000711581,-3.66522e-005 0.00132014,-0.000241707 0.00182832,-0.00061054 0.000507848,-0.000370485 0.000761772,-0.000798424 0.000761772,-0.00128382 0,-0.000434874 -0.000193167,-0.000652145 -0.000580822,-0.000652145 -0.000462941,0 -0.000888899,0.000248641 -0.00128052,0.000744271 -0.000389636,0.000495961 -0.000632994,0.00109593 -0.000728752,0.00180223zm0.0159302 -0.00155326c-0.000822529,0.00137925 -0.00169426,0.00246461 -0.00261453,0.00325809 -0.000919938,0.000793141 -0.00177417,0.00118971 -0.00256202,0.00118971 -0.000655778,0 -0.00118806,-0.000224536 -0.0015952,-0.000673278 -0.000408788,-0.000447091 -0.000612191,-0.00102956 -0.000612191,-0.00174643 0,-0.000944373 0.000351333,-0.00176723 0.001054,-0.00246825 0.000704647,-0.000701015 0.00152916,-0.00105235 0.00247716,-0.00105235 0.000384353,0 0.000699034,7.29742e-005 0.000946024,0.000220904 0.000245339,0.00014793 0.000368834,0.000335483 0.000368834,0.000563652 0,0.000373787 -0.000318313,0.000653796 -0.000953288,0.000840029 3.33502e-005,-8.18897e-005 5.05206e-005,-0.000160147 5.05206e-005,-0.000234772 0,-0.000549783 -0.000292227,-0.00082451 -0.000876682,-0.00082451 -0.000506197,0 -0.000970458,0.000283642 -0.00139675,0.000848945 -0.000426288,0.000565303 -0.000640258,0.00118278 -0.000640258,0.00185606 0,0.000546151 0.000142646,0.000993242 0.000426288,0.00133764 0.000283642,0.000344399 0.000652145,0.000516433 0.00110815,0.000516433 0.00124882,0 0.00271359,-0.00129571 0.00439199,-0.0038858l0.000427939 0.000253924zm0.00757215 0.000405156c1.02362e-005,8.18897e-005 1.55194e-005,0.000154864 1.55194e-005,0.000219253 0,0.000982676 -0.000332181,0.00183855 -0.000998525,0.00256929 -0.000666014,0.000730403 -0.00144529,0.00109593 -0.00233947,0.00109593 -0.000683514,0 -0.00123858,-0.000217602 -0.00166817,-0.000654127 -0.00042959,-0.000436525 -0.000645541,-0.00100381 -0.000645541,-0.00169954 0,-0.000793141 0.000278359,-0.00147864 0.000833425,-0.00205946 0.000554736,-0.000581152 0.00121051,-0.000871729 0.0019637,-0.000871729 0.000116561,0 0.000238405,1.58496e-005 0.000367183,4.52374e-005 -8.51917e-005,-0.000152883 -0.000127127,-0.000281661 -0.000127127,-0.000386004 0,-0.000163449 5.58038e-005,-0.000319964 0.000168732,-0.000469875 0.000828142,6.80212e-005 0.00151859,0.000492329 0.00206837,0.00127523 0.000563652,0.000382702 0.00115141,0.000573888 0.00176393,0.000573888 0.000398221,0 0.000827812,-0.000133731 0.00128877,-0.000401854l0.000255905 0.000433223c-0.000541198,0.000377419 -0.00109428,0.000565303 -0.00166124,0.000565303 -0.000377419,0 -0.000805358,-7.82575e-005 -0.00128547,-0.000234772zm-0.00115669 -0.000433223c-0.000281991,-8.51917e-005 -0.000542849,-0.000220904 -0.000779603,-0.000406807 -0.000173685,-3.66522e-005 -0.000318313,-5.58038e-005 -0.000432892,-5.58038e-005 -0.00057752,0 -0.00109065,0.000260858 -0.00153774,0.000779273 -0.00044544,0.000520065 -0.000669646,0.00111344 -0.000669646,0.00177945 0,0.000482092 0.000135712,0.000878663 0.000405156,0.00119004 0.000269774,0.000311379 0.000617474,0.000465913 0.00104211,0.000465913 0.000573888,0 0.00106787,-0.000290246 0.00148359,-0.000869747 0.000414071,-0.000579171 0.000621107,-0.00126962 0.000621107,-0.00207168 0,-0.000278359 -4.35864e-005,-0.000549453 -0.00013208,-0.000810642zm0.00790235 0.00236225c0.00120721,-0.00255179 0.00229093,-0.00382669 0.00325115,-0.00382669 0.000751205,0 0.00112697,0.000747903 0.00112697,0.00224206l1.05664e-005 0.000615823c0,0.000713232 3.66522e-005,0.00120721 0.000109626,0.00148029 7.29742e-005,0.000273076 0.000205054,0.000410439 0.000399872,0.000410439 0.000292227,0 0.000624739,-0.000233121 0.000996874,-0.000697383 0.000370485,-0.000466243 0.000977723,-0.00140203 0.0018161,-0.00280934l0.000427939 0.000250622c-0.000748234,0.00140896 -0.0014159,0.00245603 -0.00200762,0.00313789 -0.000591389,0.000683514 -0.00112169,0.00102461 -0.00158991,0.00102461 -0.000431241,0 -0.000735686,-0.000208687 -0.000909702,-0.00062606 -0.000175667,-0.000417703 -0.000262509,-0.00114117 -0.000262509,-0.00217107l-5.2832e-006 -0.000438176c0,-0.000556718 -3.66522e-005,-0.000948335 -0.000107975,-0.00117419 -7.13232e-005,-0.000226187 -0.000194818,-0.000339446 -0.000370485,-0.000339446 -0.000448742,0 -0.00117056,0.000895833 -0.00216743,0.00268585 -0.000243358,0.000438506 -0.000401523,0.000720167 -0.000472847,0.000845313 -0.000262839,0.000456007 -0.000393268,0.000784556 -0.000393268,0.000988289 0,8.15595e-005 2.24536e-005,0.000159817 6.604e-005,0.000234772 -0.000196469,8.15595e-005 -0.00036355,0.000121844 -0.000499263,0.000121844 -0.000342748,0 -0.000514782,-0.000189865 -0.000514782,-0.000570586 0,-0.000109626 4.35864e-005,-0.000598653 0.00013208,-0.0014684l0.000113259 -0.00110617c5.01904e-005,-0.000467894 7.62763e-005,-0.000831444 7.62763e-005,-0.001089 0,-0.000359918 -8.15595e-005,-0.000645211 -0.000245009,-0.000852247 7.13232e-005,-2.27838e-005 0.000189535,-6.4389e-005 0.000356616,-0.000121844 0.000210338,-7.46252e-005 0.00037907,-0.000112928 0.000504216,-0.000112928 0.000266141,0 0.000398552,0.000192837 0.000398552,0.000580822 0,0.000203734 -2.60858e-005,0.000555067 -7.66065e-005,0.0010507 -1.05664e-005,0.000109626 -2.08026e-005,0.000212319 -3.1369e-005,0.000311379l-0.00013208 0.00142283z"/>
   </g>
   <g>
    <path id="_926663840" class="fil1" d="M0.0700365 0.0724472c-2.9718e-006,-3.89636e-005 -7.59461e-006,-9.77393e-005 -1.22174e-005,-0.000178638 -3.302e-006,-7.92481e-005 -7.92481e-006,-0.000169393 -1.25476e-005,-0.000267132 -2.9718e-006,-9.93903e-005 -7.59461e-006,-0.00019713 -1.08966e-005,-0.000295199 -2.9718e-006,-9.60883e-005 -6.2738e-006,-0.00018161 -7.59461e-006,-0.000254584 -1.651e-006,-7.29742e-005 -3.302e-006,-0.000122834 -3.302e-006,-0.000150571l0 -0.000876021c1.651e-006,-0.000330861 4.65582e-005,-0.000658749 0.000136703,-0.000980034 9.01447e-005,-0.000323266 0.000215951,-0.000632333 0.000376098,-0.000925881 0.000159817,-0.000293548 0.00034605,-0.000562001 0.000559029,-0.000806019 0.000175336,-0.000201752 0.000361899,-0.000383693 0.00056068,-0.00054351 0.000198781,-0.000160147 0.000402184,-0.00029652 0.000608889,-0.000410109 0.000206375,-0.000111608 0.000410109,-0.000198781 0.00061021,-0.000257886l-0.000279349 -0.000726771c-0.000146279,4.82092e-005 -0.000301473,0.00011491 -0.000465913,0.000203403 -0.00016477,8.84937e-005 -0.000327889,0.000187884 -0.000491008,0.000301473 -0.00016444,0.000111608 -0.000318313,0.000229819 -0.00046129,0.000351003 -0.000142977,0.000121183 -0.000267132,0.000240716 -0.000371145,0.000355626 -0.000167742,0.000187884 -0.000319964,0.000377419 -0.000456667,0.000568275 -0.000136703,0.000191186 -0.000259207,0.000394589 -0.000369494,0.000608889 -0.000111938,0.0002143 -0.000211328,0.000449072 -0.000301473,0.000705308l-1.84912e-005 0c-5.2832e-005,-0.000194158 -0.000124485,-0.000383693 -0.0002143,-0.000568605 -9.01447e-005,-0.000184912 -0.000191186,-0.00036322 -0.000304445,-0.000534264 -0.000111938,-0.000170714 -0.000228499,-0.000332181 -0.000348031,-0.000484404 -0.000117881,-0.000150901 -0.000234442,-0.000290576 -0.000344729,-0.000416382 -6.20776e-005,-6.83514e-005 -0.000142977,-0.00014925 -0.000245339,-0.000240716 -0.000102692,-9.31165e-005 -0.000217602,-0.000189535 -0.000348031,-0.000290576 -0.000130429,-0.000100711 -0.000268783,-0.000200101 -0.000416382,-0.00029652 -0.000145948,-9.77393e-005 -0.000293548,-0.000184912 -0.000444119,-0.000262509l-0.000382042 0.000726771c0.000169393,7.29742e-005 0.000333832,0.000163119 0.000495631,0.000270434 0.000162789,0.000106985 0.000318313,0.000226848 0.000465913,0.000357277 0.000147599,0.000130429 0.000283972,0.000265481 0.000408458,0.000406807 0.000159817,0.000175667 0.000312039,0.000366522 0.000455016,0.000576199 0.000144297,0.000208026 0.000271755,0.000433223 0.000383693,0.00067559 0.000111608,0.000242367 0.000200101,0.000500253 0.000265481,0.000773659 6.37286e-005,0.000271755 9.64185e-005,0.00056068 9.77393e-005,0.000863474l0 0.000698704c0,2.6416e-005 -1.3208e-006,8.08991e-005 -2.9718e-006,0.000163119 -2.9718e-006,8.25501e-005 -6.2738e-006,0.000180289 -1.08966e-005,0.000293548 -2.9718e-006,0.000111938 -7.59461e-006,0.000226848 -1.25476e-005,0.000343408 -4.6228e-006,0.000116561 -7.59461e-006,0.000220574 -1.08966e-005,0.000315341 -4.6228e-006,9.31165e-005 -7.59461e-006,0.000163119 -9.24561e-006,0.000208026l0.000931825 0zm0.00567548 0.000130429c0.000406807,-1.651e-006 0.000770357,-4.953e-005 0.00109329,-0.000144297 0.000322936,-9.34467e-005 0.000607238,-0.000222225 0.000852577,-0.000385344 0.000244018,-0.000163119 0.000453695,-0.000347701 0.000629031,-0.000557378 0.000174016,-0.000208356 0.000315341,-0.00042893 0.000425628,-0.0006604 0.000108636,-0.000232791 0.000189535,-0.000464262 0.000240716,-0.000695732 5.1181e-005,-0.00023147 7.62763e-005,-0.000452044 7.62763e-005,-0.00066007 -1.651e-006,-0.000426949 -7.29742e-005,-0.00080767 -0.000212979,-0.0011415 -0.000141326,-0.000333832 -0.000338455,-0.000616484 -0.00059337,-0.000849605 -0.000254584,-0.00023147 -0.000554406,-0.000408458 -0.000899135,-0.000529641 -0.00034638,-0.000119532 -0.00072545,-0.00018161 -0.00113688,-0.00018161 -0.000410109,1.651e-006 -0.000789179,5.58038e-005 -0.00113523,0.000161468 -0.00034638,0.000107315 -0.000655447,0.000257886 -0.000927532,0.000453365 -0.000273076,0.000194158 -0.000504546,0.000424307 -0.000695732,0.000689788 -0.000190856,0.00026416 -0.000335483,0.000556057 -0.000436525,0.00087437 -9.93903e-005,0.000318313 -0.00014892,0.000653796 -0.000150571,0.0010081 0,0.000281 4.06146e-005,0.000551434 0.000121183,0.000808991 7.92481e-005,0.000257886 0.000198781,0.000497282 0.000355626,0.000716204 0.000156845,0.000218923 0.000351003,0.000411429 0.000582473,0.000574548 0.00023147,0.000163119 0.000496951,0.000290576 0.000799745,0.000380391 0.000303124,9.01447e-005 0.000639928,0.000136703 0.0010114,0.000138354zm7.4295e-005 -0.000615163c-0.000324587,-1.3208e-006 -0.000614833,-5.74548e-005 -0.000872719,-0.000166091 -0.000256235,-0.000106985 -0.000475158,-0.000259207 -0.000657098,-0.000452044 -0.000179959,-0.000194158 -0.000318313,-0.000419354 -0.00041308,-0.00067559 -9.64185e-005,-0.000256235 -0.000144297,-0.000532613 -0.000144297,-0.000830784 0,-0.000340106 5.41528e-005,-0.000658749 0.000161468,-0.000953618 0.000106985,-0.000295199 0.000262509,-0.000554406 0.000465913,-0.000778282 0.000205054,-0.000225197 0.000452044,-0.000400533 0.000743941,-0.000526339 0.000293548,-0.000125806 0.000624409,-0.000191186 0.000995554,-0.000192837 0.00027968,0 0.000545161,4.35864e-005 0.000795122,0.00013208 0.000251613,8.84937e-005 0.000473837,0.000222225 0.000669646,0.000399212 0.000194158,0.000176987 0.000347701,0.000397561 0.00046129,0.000663372 0.000111608,0.000265481 0.000169063,0.000576199 0.000170714,0.000930174 -1.651e-006,0.000391287 -6.67004e-005,0.000739318 -0.000191186,0.00104376 -0.000125806,0.000302794 -0.000298171,0.000559029 -0.000518745,0.000768706 -0.000218923,0.000209677 -0.000472186,0.000368173 -0.000756158,0.000475488 -0.000285953,0.000108636 -0.000588747,0.000162789 -0.000910362,0.000162789zm0.00534924 -0.00371805c0,-0.000240716 2.9718e-006,-0.00044577 7.59461e-006,-0.000615163 4.953e-006,-0.000170714 9.57581e-006,-0.000310718 1.58496e-005,-0.000422326 5.9436e-006,-0.000110287 1.05664e-005,-0.000200432 1.38684e-005,-0.000267132l-0.000838709 0c0,4.82092e-005 0,0.000116561 -1.651e-006,0.000203403 0,8.84937e-005 -1.651e-006,0.000186233 -2.9718e-006,0.000293548 -1.651e-006,0.000108636 -1.651e-006,0.000217272 -3.302e-006,0.000327559 -1.3208e-006,0.000108966 -1.3208e-006,0.000209677 -1.3208e-006,0.000303124l0 0.0004286c0,0.000382042 5.9436e-006,0.000717525 2.01422e-005,0.00100645 1.38684e-005,0.000288925 3.56616e-005,0.000540538 6.37286e-005,0.000756489 2.93878e-005,0.0002143 6.50494e-005,0.000403505 0.000108636,0.000565303 4.49072e-005,0.000161468 9.77393e-005,0.000307416 0.000158496,0.000436194 6.04266e-005,0.000129108 0.000130429,0.000251613 0.000208026,0.000366522 0.000150571,0.000219253 0.00031369,0.000392938 0.000490678,0.000522047 0.000175667,0.000128778 0.000352654,0.000223546 0.000531292,0.000285623 0.000178638,6.07568e-005 0.00034638,0.000101041 0.000504876,0.000118212 0.000158166,1.84912e-005 0.000294869,2.6416e-005 0.000411429,2.4765e-005 0.000299822,0 0.000569926,-3.10388e-005 0.000809321,-9.14655e-005 0.000239065,-6.07568e-005 0.000456667,-0.000153873 0.000652145,-0.00027968 0.000195809,-0.000125806 0.000376098,-0.000284302 0.000542189,-0.000476809 0.000208026,-0.000244018 0.000366522,-0.000517094 0.000475158,-0.000823189 0.000107315,-0.000306096 0.000180289,-0.000653796 0.000217602,-0.00104673 3.73126e-005,-0.000392938 5.58038e-005,-0.00084036 5.2832e-005,-0.00134524l0 -0.000372796c0,-0.000209677 -1.651e-006,-0.000403835 -1.651e-006,-0.000580822 -1.651e-006,-0.000178638 -2.9718e-006,-0.000330861 -4.6228e-006,-0.000459639 -1.651e-006,-0.000127457 -3.302e-006,-0.000222225 -3.302e-006,-0.000282651l-0.000847954 0c6.2738e-006,0.000150571 1.55194e-005,0.000338455 2.6416e-005,0.000562331 1.25476e-005,0.000225197 1.88214e-005,0.000475158 2.01422e-005,0.000751536l0 0.000270434c3.302e-006,0.000416052 -2.9718e-006,0.000798094 -1.68402e-005,0.00114612 -1.25476e-005,0.000348031 -4.82092e-005,0.000658419 -0.000105664,0.000931825 -5.74548e-005,0.000273406 -0.00014925,0.000506527 -0.000278029,0.000699034 -9.17957e-005,0.000141326 -0.000203403,0.000268783 -0.000332512,0.000382042 -0.000128778,0.000113259 -0.000284302,0.000203403 -0.000462941,0.000270104 -0.000178308,6.70306e-005 -0.000389636,0.000101041 -0.000630352,0.000102692 -0.000302794,1.3208e-006 -0.000573228,-5.91058e-005 -0.00080767,-0.000183261 -0.000236093,-0.000122834 -0.000436525,-0.000316992 -0.000599644,-0.000580822 -7.92481e-005,-0.000129108 -0.000144297,-0.000267132 -0.000194158,-0.000413411 -5.1181e-005,-0.000147269 -9.14655e-005,-0.00031369 -0.000121183,-0.000496951 -2.77368e-005,-0.000184582 -4.7879e-005,-0.000399212 -5.87756e-005,-0.000641249 -1.25476e-005,-0.000242367 -1.71704e-005,-0.000523698 -1.71704e-005,-0.000843331l0 -0.000531292zm0.0115742 0.00420279c-3.302e-006,-3.26898e-005 -7.92481e-006,-0.000116561 -1.41986e-005,-0.000251613 -7.59461e-006,-0.000135052 -1.55194e-005,-0.000309067 -2.3114e-005,-0.000525018 -7.92481e-006,-0.0002143 -1.71704e-005,-0.000457988 -2.4765e-005,-0.000731393 -9.57581e-006,-0.000273406 -1.71704e-005,-0.000565303 -2.50952e-005,-0.00087437 -7.59461e-006,-0.000310718 -1.38684e-005,-0.000627711 -1.68402e-005,-0.000952297 -4.6228e-006,-0.000322936 -7.92481e-006,-0.000644551 -7.92481e-006,-0.000961213l0 -0.00153774c0.00013208,0 0.000285953,1.651e-006 0.000458318,2.9718e-006 0.000172365,3.302e-006 0.000353975,6.2738e-006 0.000545161,9.57581e-006 0.000189535,4.6228e-006 0.000375768,9.24561e-006 0.00056068,1.55194e-005 0.000183261,4.6228e-006 0.000351003,1.08966e-005 0.000504546,1.68402e-005 0.000153873,6.2738e-006 0.000281331,1.25476e-005 0.000382372,1.88214e-005 0.000100711,7.59461e-006 0.000162789,1.38684e-005 0.000186233,2.01422e-005l0 -0.00079215c-6.04266e-005,1.08966e-005 -0.00014925,2.01422e-005 -0.000265481,2.9718e-005 -0.00011491,9.24561e-006 -0.000250292,1.68402e-005 -0.000402514,2.4765e-005 -0.000152222,7.59461e-006 -0.000312039,1.55194e-005 -0.000479781,2.01422e-005 -0.000166091,6.2738e-006 -0.000332512,1.25476e-005 -0.000495631,1.71704e-005 -0.000162789,4.6228e-006 -0.000312039,7.59461e-006 -0.000450393,1.08966e-005 -0.000138024,2.9718e-006 -0.000252933,4.6228e-006 -0.00034605,5.9436e-006 -9.17957e-005,1.651e-006 -0.000152222,3.302e-006 -0.000178638,3.302e-006l-0.000810972 0c-1.68402e-005,0 -6.96722e-005,-1.651e-006 -0.000161468,-3.302e-006 -9.01447e-005,-1.3208e-006 -0.000208026,-2.9718e-006 -0.000349352,-5.9436e-006 -0.000142977,-3.302e-006 -0.000299822,-6.2738e-006 -0.000470535,-1.08966e-005 -0.000171044,-4.6228e-006 -0.000345059,-1.08966e-005 -0.000522047,-1.71704e-005 -0.000175336,-6.2738e-006 -0.000343078,-1.25476e-005 -0.000503225,-2.01422e-005 -0.000158496,-7.92481e-006 -0.000298171,-1.55194e-005 -0.000416052,-2.4765e-005 -0.000118212,-9.57581e-006 -0.000205054,-1.88214e-005 -0.000261188,-2.9718e-005l0 0.00079215c4.98602e-005,-7.59461e-006 0.000138354,-1.55194e-005 0.00026416,-2.34442e-005 0.000127457,-7.59461e-006 0.00027968,-1.55194e-005 0.000459639,-2.3114e-005 0.00018194,-6.2738e-006 0.00037907,-1.25476e-005 0.000591719,-1.88214e-005 0.0002143,-5.9436e-006 0.000433553,-1.05664e-005 0.00066007,-1.38684e-005 0.000225197,-2.9718e-006 0.00044577,-4.6228e-006 0.000661721,-4.6228e-006l0 0.00138849c0,0.000212979 0,0.000447421 0,0.000700355 -1.651e-006,0.000253264 -1.651e-006,0.000515773 -2.9718e-006,0.000786207 0,0.000271755 -1.651e-006,0.000540208 -4.6228e-006,0.000808991 -1.651e-006,0.000267132 -3.302e-006,0.000522047 -6.2738e-006,0.000764083 -3.302e-006,0.000242367 -6.2738e-006,0.00046129 -1.08966e-005,0.000657098 -3.302e-006,0.000195809 -7.92481e-006,0.000357277 -1.25476e-005,0.000483083 -6.2738e-006,0.000127457 -1.22174e-005,0.000208026 -1.84912e-005,0.000245339l0.00100645 0zm0.00457558 0c-1.651e-006,-3.26898e-005 -3.302e-006,-9.64185e-005 -6.2738e-006,-0.000187884 -1.651e-006,-9.17957e-005 -4.6228e-006,-0.000203403 -7.92481e-006,-0.000333832 -2.9718e-006,-0.000129108 -4.6228e-006,-0.000267132 -7.59461e-006,-0.000413411 -3.302e-006,-0.000144297 -6.2738e-006,-0.000287274 -7.92481e-006,-0.000426949 -2.9718e-006,-0.000138354 -4.6228e-006,-0.00026416 -6.2738e-006,-0.000374447 -1.3208e-006,-0.000111608 -1.3208e-006,-0.00019713 -1.3208e-006,-0.000257886l0 -0.000484404 0.00358763 -0.00014925 0 0.000801396c0,2.6416e-005 0,8.25501e-005 -1.651e-006,0.000167742 0,8.55219e-005 -1.3208e-006,0.000189535 -4.6228e-006,0.000312369 -1.3208e-006,0.000121183 -2.9718e-006,0.000251613 -6.2738e-006,0.000388315 -2.9718e-006,0.000136703 -5.9436e-006,0.000268783 -9.24561e-006,0.000397561 -2.9718e-006,0.000128778 -7.59461e-006,0.000242367 -1.08966e-005,0.000341757 -4.6228e-006,9.93903e-005 -9.24561e-006,0.000172365 -1.38684e-005,0.000218923l0.000894512 0c-2.9718e-006,-2.34442e-005 -4.6228e-006,-7.75971e-005 -7.59461e-006,-0.000166091 -3.302e-006,-8.71729e-005 -4.6228e-006,-0.000195809 -7.92481e-006,-0.000324587 -2.9718e-006,-0.000129108 -4.6228e-006,-0.000270434 -6.2738e-006,-0.000419354 -2.9718e-006,-0.000150901 -4.6228e-006,-0.000301473 -5.9436e-006,-0.000450393 -1.651e-006,-0.00014925 -3.302e-006,-0.000287604 -4.6228e-006,-0.000414731 -1.651e-006,-0.000125806 -3.302e-006,-0.00023147 -3.302e-006,-0.00031369 -1.651e-006,-8.25501e-005 -1.651e-006,-0.00013208 -1.651e-006,-0.000147599l0 -0.00079215c0,-2.8067e-005 1.651e-006,-9.17957e-005 3.302e-006,-0.000187884 1.651e-006,-9.80695e-005 2.9718e-006,-0.000217602 6.2738e-006,-0.000360579 2.9718e-006,-0.000142646 5.9436e-006,-0.00029652 1.08966e-005,-0.00046129 2.9718e-006,-0.000166091 7.59461e-006,-0.00033053 1.05664e-005,-0.000496951 4.953e-006,-0.00016444 9.57581e-006,-0.000319964 1.25476e-005,-0.00046129 4.6228e-006,-0.000142646 9.24561e-006,-0.000262509 1.25476e-005,-0.000360248 2.9718e-006,-9.64185e-005 6.2738e-006,-0.000159817 9.24561e-006,-0.000187884l-0.000904088 0c1.651e-006,3.10388e-005 3.302e-006,9.14655e-005 6.2738e-006,0.000180289 1.651e-006,8.98145e-005 3.302e-006,0.000195479 6.2738e-006,0.000318313 1.651e-006,0.000124155 2.9718e-006,0.000251613 4.6228e-006,0.000385013 3.302e-006,0.000133731 4.6228e-006,0.000261188 6.2738e-006,0.000382042 1.651e-006,0.000119863 2.9718e-006,0.000222225 2.9718e-006,0.000306096 1.651e-006,8.38709e-005 1.651e-006,0.000138354 1.651e-006,0.000161468l0 0.000596342 -0.00358763 0.00014925 0 -0.00057785c0,-2.4765e-005 0,-8.55219e-005 1.3208e-006,-0.000179959 1.651e-006,-9.34467e-005 4.6228e-006,-0.000208356 6.2738e-006,-0.000343408 3.302e-006,-0.000135052 4.6228e-006,-0.000278029 7.92481e-006,-0.000426949 2.9718e-006,-0.00014925 7.59461e-006,-0.000292227 1.08966e-005,-0.000427279 2.9718e-006,-0.000135052 5.9436e-006,-0.000249962 1.08966e-005,-0.000343078 2.9718e-006,-9.47675e-005 5.9436e-006,-0.000155524 9.24561e-006,-0.000180289l-0.000904088 0c3.302e-006,2.8067e-005 6.2738e-006,8.68427e-005 9.24561e-006,0.000176987 1.651e-006,9.17957e-005 4.953e-006,0.000202083 7.92481e-006,0.000332512 2.9718e-006,0.00013208 6.2738e-006,0.000271755 9.24561e-006,0.000423977 3.302e-006,0.000150571 4.6228e-006,0.000301143 7.92481e-006,0.000450393 2.9718e-006,0.000150571 4.6228e-006,0.000290246 5.9436e-006,0.000417703 1.651e-006,0.000129108 3.302e-006,0.000236093 4.953e-006,0.000321615 1.3208e-006,8.55219e-005 1.3208e-006,0.000138024 1.3208e-006,0.000159817l0 0.00085753c0,3.56616e-005 0,0.000111608 0,0.000225197 -1.3208e-006,0.000113259 -1.3208e-006,0.000251613 -2.9718e-006,0.00041308 -1.651e-006,0.000159817 -1.651e-006,0.000330861 -3.302e-006,0.00051082 -1.3208e-006,0.000180289 -4.6228e-006,0.000354305 -5.9436e-006,0.000523698 -1.651e-006,0.000169063 -4.6228e-006,0.000318313 -6.2738e-006,0.000447091 -3.302e-006,0.000130429 -6.2738e-006,0.000223876 -9.24561e-006,0.000284302l0.000876021 0zm0.00763225 -0.00325214c0,-0.000192837 1.3208e-006,-0.000388315 2.9718e-006,-0.000590398 1.651e-006,-0.000201752 4.6228e-006,-0.000397561 7.92481e-006,-0.000587096 2.9718e-006,-0.000189535 7.59461e-006,-0.00036355 1.05664e-005,-0.000521716 4.953e-006,-0.000156845 9.57581e-006,-0.000288925 1.25476e-005,-0.000392938 4.6228e-006,-0.000104013 9.24561e-006,-0.000171044 1.25476e-005,-0.000200432l-0.000904088 0c3.302e-006,2.8067e-005 6.2738e-006,8.68427e-005 9.24561e-006,0.000176987 1.651e-006,9.01447e-005 4.953e-006,0.000202083 7.92481e-006,0.000332512 2.9718e-006,0.000130429 6.2738e-006,0.000271755 9.24561e-006,0.000423977 3.302e-006,0.000150571 4.6228e-006,0.000301143 7.92481e-006,0.000450393 2.9718e-006,0.000150571 4.6228e-006,0.000290246 5.9436e-006,0.000417703 1.651e-006,0.000129108 3.302e-006,0.000234442 4.953e-006,0.000319964 1.3208e-006,8.55219e-005 1.3208e-006,0.000139675 1.3208e-006,0.000161468l0 0.00085753c0,3.73126e-005 0,0.000111608 0,0.000225197 -1.3208e-006,0.000113259 -1.3208e-006,0.000251613 -2.9718e-006,0.00041308 -1.651e-006,0.000161468 -1.651e-006,0.000330861 -3.302e-006,0.00051082 -1.3208e-006,0.000180289 -4.6228e-006,0.000354305 -5.9436e-006,0.000523698 -1.651e-006,0.000169063 -4.6228e-006,0.000318313 -6.2738e-006,0.000447091 -3.302e-006,0.000130429 -6.2738e-006,0.000223876 -9.24561e-006,0.000284302l0.000876021 0c-1.651e-006,-4.02844e-005 -4.953e-006,-0.000121183 -7.92481e-006,-0.000245339 -2.9718e-006,-0.000122834 -6.2738e-006,-0.000273406 -9.24561e-006,-0.000450393 -3.302e-006,-0.000176987 -6.2738e-006,-0.000366522 -9.24561e-006,-0.000568605 -3.302e-006,-0.000200432 -6.2738e-006,-0.000399212 -7.92481e-006,-0.000594691 -1.651e-006,-0.00019746 -2.9718e-006,-0.000374447 -2.9718e-006,-0.000535915l0 -0.0008572zm0.00303784 0.00330795c-1.651e-006,-3.56616e-005 -1.651e-006,-0.000119532 0,-0.000252933 0,-0.000133731 1.651e-006,-0.000303124 4.6228e-006,-0.000506527 1.651e-006,-0.000203403 4.6228e-006,-0.000426949 7.59461e-006,-0.000672288 3.302e-006,-0.000245669 6.2738e-006,-0.000495631 9.57581e-006,-0.000753517 2.9718e-006,-0.000257886 6.2738e-006,-0.000506197 9.24561e-006,-0.000748564 2.9718e-006,-0.000240716 4.6228e-006,-0.000459639 6.2738e-006,-0.000657098 2.9718e-006,-0.00019713 2.9718e-006,-0.000355626 2.9718e-006,-0.000479781 0,-0.000122834 -1.651e-006,-0.000195809 -2.9718e-006,-0.000215951l1.84912e-005 0c1.55194e-005,1.71704e-005 8.55219e-005,8.71729e-005 0.000209677,0.000212979 0.000124155,0.000124155 0.000288925,0.000288595 0.000491008,0.000490678 0.000203403,0.000203403 0.000429921,0.000430251 0.000681533,0.000680212 0.000250292,0.000249962 0.000509499,0.000509499 0.000778282,0.000776631 0.000268783,0.000267132 0.000531292,0.00052799 0.000785877,0.000781254 0.000256235,0.000253264 0.000489357,0.000486055 0.000700355,0.000694081 0.000212979,0.000209677 0.000386995,0.000382372 0.000525018,0.000517424 0.000136703,0.000133401 0.000222225,0.000215951 0.000254915,0.000245339l3.73126e-005 0c5.9436e-006,-0.000287274 1.22174e-005,-0.00059337 2.3114e-005,-0.000919608 9.24561e-006,-0.000325908 2.01422e-005,-0.00066007 3.26898e-005,-0.0010015 1.22174e-005,-0.000341757 2.6416e-005,-0.000680543 4.02844e-005,-0.00101438 1.38684e-005,-0.000335483 2.8067e-005,-0.000653796 4.19354e-005,-0.00095659 1.25476e-005,-0.000304445 2.6416e-005,-0.000579501 3.89636e-005,-0.000829463 1.22174e-005,-0.000248641 2.3114e-005,-0.000458318 3.26898e-005,-0.000629031 1.05664e-005,-0.000172365 1.84912e-005,-0.000291897 2.3114e-005,-0.000361899l-0.000829463 -3.73126e-005c-1.3208e-006,3.43408e-005 -1.3208e-006,0.000116561 -2.9718e-006,0.000243688 -1.651e-006,0.000127457 -3.302e-006,0.000288925 -4.6228e-006,0.000483083 -1.651e-006,0.000194158 -3.302e-006,0.000407137 -4.6228e-006,0.000641579 -1.651e-006,0.000233121 -3.302e-006,0.000472186 -4.6228e-006,0.000719176 -1.651e-006,0.000245339 -3.302e-006,0.000486055 -4.953e-006,0.000717525 -1.3208e-006,0.000232791 -1.3208e-006,0.000444119 -2.9718e-006,0.000636626 0,0.000191186 -1.651e-006,0.000349682 -1.651e-006,0.000473837 -1.3208e-006,0.000124155 -1.3208e-006,0.000201752 -1.3208e-006,0.00023147 -3.43408e-005,-3.43408e-005 -0.000119863,-0.000118212 -0.000253264,-0.000251613 -0.000133731,-0.000133731 -0.000304445,-0.000304445 -0.000507848,-0.000509499 -0.000205054,-0.000205054 -0.000431902,-0.000433223 -0.000678892,-0.000681863 -0.00024699,-0.000248311 -0.000499923,-0.000503225 -0.000760781,-0.000767385 -0.000261188,-0.000262179 -0.000515773,-0.000518745 -0.000762763,-0.000767055 -0.000245339,-0.000248641 -0.000470535,-0.000476809 -0.000673939,-0.000683514 -0.000203734,-0.000205054 -0.000371475,-0.000375768 -0.000504876,-0.00051082 -0.00013208,-0.000135052 -0.0002143,-0.000220574 -0.00024699,-0.000254915l-4.65582e-005 0c-4.6228e-006,0.000105664 -1.25476e-005,0.000259537 -2.17932e-005,0.000462941 -1.08966e-005,0.000203403 -2.3114e-005,0.000442798 -3.73126e-005,0.000714553 -1.38684e-005,0.000273406 -2.93878e-005,0.000566954 -4.49072e-005,0.000880644 -1.71704e-005,0.00031369 -3.43408e-005,0.000632003 -5.1181e-005,0.00095659 -1.71704e-005,0.000324587 -3.43408e-005,0.000639928 -5.15112e-005,0.000946024 -1.55194e-005,0.000307416 -3.10388e-005,0.000590068 -4.65582e-005,0.000849605 -1.38684e-005,0.000257556 -2.6416e-005,0.000479781 -3.86334e-005,0.000661391 -1.08966e-005,0.000183261 -1.88214e-005,0.000312369 -2.50952e-005,0.000389966l0.00085753 5.58038e-005zm0.00776268 2.8067e-005c-3.302e-006,-2.8067e-005 -6.2738e-006,-9.64185e-005 -9.57581e-006,-0.000200432 -4.6228e-006,-0.000105664 -7.59461e-006,-0.000236093 -1.08966e-005,-0.000392938 -2.9718e-006,-0.000156845 -7.59461e-006,-0.000326238 -1.08966e-005,-0.000507848 -2.9718e-006,-0.00018161 -4.6228e-006,-0.00036355 -7.59461e-006,-0.000545161 -1.651e-006,-0.00018161 -4.6228e-006,-0.000351003 -6.2738e-006,-0.000506197 -1.651e-006,-0.000156845 -1.651e-006,-0.000287274 -1.651e-006,-0.000391617l0 -0.000847954c0,-0.000116561 1.651e-006,-0.000249962 3.302e-006,-0.000402184 1.651e-006,-0.000152222 4.6228e-006,-0.000310718 6.2738e-006,-0.000476809 2.9718e-006,-0.000166091 5.9436e-006,-0.00032921 1.08966e-005,-0.000490678 2.9718e-006,-0.000161798 5.9436e-006,-0.000309067 1.05664e-005,-0.000444449 3.302e-006,-0.000135052 6.2738e-006,-0.00024699 9.57581e-006,-0.000336804 2.9718e-006,-9.01447e-005 4.6228e-006,-0.000146279 6.2738e-006,-0.000169393l-0.000894843 0c0,3.26898e-005 1.651e-006,9.77393e-005 3.302e-006,0.000194158 2.9718e-006,9.60883e-005 5.9436e-006,0.000215951 9.24561e-006,0.000355626 2.9718e-006,0.000141326 7.59461e-006,0.000293548 1.08966e-005,0.000458318 4.6228e-006,0.000166091 7.59461e-006,0.000332181 1.08966e-005,0.000499923 4.6228e-006,0.000169393 5.9436e-006,0.000330861 9.24561e-006,0.000483083 1.651e-006,0.000152222 2.9718e-006,0.000287274 2.9718e-006,0.000403835l0 0.000838709c0,0.000183261 -1.3208e-006,0.000377419 -2.9718e-006,0.000582473 -1.651e-006,0.000205054 -4.6228e-006,0.000410109 -7.92481e-006,0.000613512 -2.9718e-006,0.000203403 -7.59461e-006,0.000392938 -1.08966e-005,0.000569926 -4.6228e-006,0.000176987 -7.59461e-006,0.000327559 -1.22174e-005,0.000452044 -4.6228e-006,0.000125806 -7.92481e-006,0.000212649 -1.25476e-005,0.000260858l0.000894843 0zm0.00357838 -0.0006429c-4.98602e-005,-4.35864e-005 -0.000127457,-0.00011491 -0.000236093,-0.000211328 -0.000107315,-9.77393e-005 -0.000233121,-0.000211328 -0.00037907,-0.000343408 -0.000144297,-0.000133401 -0.000299822,-0.000273076 -0.000462941,-0.000423977 -0.00016444,-0.00014892 -0.000327559,-0.000299492 -0.000489027,-0.000450393 -0.000161468,-0.00014892 -0.00031369,-0.000290246 -0.000455016,-0.000423977 -0.000140005,-0.00013208 -0.000261188,-0.000248311 -0.000360579,-0.00034638 -9.93903e-005,-9.77393e-005 -0.000169063,-0.000169063 -0.000208026,-0.0002143 7.75971e-005,-7.13232e-005 0.000178638,-0.000161468 0.000304445,-0.000271755 0.000125806,-0.000108636 0.00026416,-0.000228168 0.000416382,-0.000358928 0.000151892,-0.000130429 0.000307416,-0.00026383 0.000465913,-0.000397561 0.000159817,-0.000135052 0.000312039,-0.000262509 0.000456667,-0.000385013 0.000145948,-0.000121183 0.000274727,-0.000228499 0.000386664,-0.000319964 0.000110287,-9.17957e-005 0.000195479,-0.000160147 0.000252933,-0.000205054l-0.000493649 -0.000605587c-2.9718e-005,3.10388e-005 -9.93903e-005,9.77393e-005 -0.000206705,0.000201752 -0.000108636,0.000102362 -0.000242367,0.000229819 -0.000400533,0.000380391 -0.000160147,0.000150901 -0.000332512,0.000312369 -0.000517424,0.000486385 -0.000183261,0.000172365 -0.000368173,0.00034638 -0.000551434,0.000517094 -0.000183261,0.000172365 -0.000352324,0.000330861 -0.000509169,0.000476809 -0.000155524,0.000145948 -0.000284302,0.000267132 -0.000386995,0.00036355 -0.000102362,9.47675e-005 -0.00016444,0.000153543 -0.000186233,0.000174016 5.4483e-005,5.74548e-005 0.000145948,0.000151892 0.000274727,0.000282651 0.000127457,0.000130429 0.000281331,0.000283972 0.000456667,0.00046129 0.000177318,0.000176987 0.000365201,0.000364871 0.000562331,0.000562001 0.000198781,0.00019746 0.000392938,0.000392938 0.000585445,0.000584124 0.000192837,0.000190856 0.000369824,0.000368173 0.000529641,0.00052799 0.000161798,0.000160147 0.000292227,0.000290576 0.000394589,0.000392938 0.000102692,0.000102692 0.000161468,0.000161468 0.000178638,0.000180289l0.00057785 -0.000633654zm0.00531193 -0.00269311c0,-0.000192837 1.3208e-006,-0.000388315 2.9718e-006,-0.000590398 1.651e-006,-0.000201752 4.6228e-006,-0.000397561 7.92481e-006,-0.000587096 2.9718e-006,-0.000189535 7.59461e-006,-0.00036355 1.05664e-005,-0.000521716 4.953e-006,-0.000156845 9.57581e-006,-0.000288925 1.25476e-005,-0.000392938 4.6228e-006,-0.000104013 9.24561e-006,-0.000171044 1.25476e-005,-0.000200432l-0.000904088 0c3.302e-006,2.8067e-005 6.2738e-006,8.68427e-005 9.24561e-006,0.000176987 1.651e-006,9.01447e-005 4.953e-006,0.000202083 7.92481e-006,0.000332512 2.9718e-006,0.000130429 6.2738e-006,0.000271755 9.24561e-006,0.000423977 3.302e-006,0.000150571 4.6228e-006,0.000301143 7.92481e-006,0.000450393 2.9718e-006,0.000150571 4.6228e-006,0.000290246 5.9436e-006,0.000417703 1.651e-006,0.000129108 3.302e-006,0.000234442 4.953e-006,0.000319964 1.3208e-006,8.55219e-005 1.3208e-006,0.000139675 1.3208e-006,0.000161468l0 0.00085753c0,3.73126e-005 0,0.000111608 0,0.000225197 -1.3208e-006,0.000113259 -1.3208e-006,0.000251613 -2.9718e-006,0.00041308 -1.651e-006,0.000161468 -1.651e-006,0.000330861 -3.302e-006,0.00051082 -1.3208e-006,0.000180289 -4.6228e-006,0.000354305 -5.9436e-006,0.000523698 -1.651e-006,0.000169063 -4.6228e-006,0.000318313 -6.2738e-006,0.000447091 -3.302e-006,0.000130429 -6.2738e-006,0.000223876 -9.24561e-006,0.000284302l0.000876021 0c-1.651e-006,-4.02844e-005 -4.953e-006,-0.000121183 -7.92481e-006,-0.000245339 -2.9718e-006,-0.000122834 -6.2738e-006,-0.000273406 -9.24561e-006,-0.000450393 -3.302e-006,-0.000176987 -6.2738e-006,-0.000366522 -9.24561e-006,-0.000568605 -3.302e-006,-0.000200432 -6.2738e-006,-0.000399212 -7.92481e-006,-0.000594691 -1.651e-006,-0.00019746 -2.9718e-006,-0.000374447 -2.9718e-006,-0.000535915l0 -0.0008572zm0.00438902 0.00325214c-2.9718e-006,-2.8067e-005 -7.59461e-006,-9.93903e-005 -1.38684e-005,-0.0002143 -6.2738e-006,-0.000113259 -1.25476e-005,-0.000262509 -2.01422e-005,-0.00044577 -7.92481e-006,-0.00018161 -1.55194e-005,-0.000389966 -2.50952e-005,-0.000621437 -7.59461e-006,-0.000232791 -1.38684e-005,-0.000479781 -2.17932e-005,-0.000743941 -5.9436e-006,-0.000262509 -1.05664e-005,-0.000532613 -1.55194e-005,-0.000808991 -4.6228e-006,-0.000275057 -5.9436e-006,-0.000548463 -5.9436e-006,-0.000818566l0 -0.00123c0.00011491,0 0.000249962,0 0.000402184,2.9718e-006 0.000153873,1.651e-006 0.00031369,4.6228e-006 0.000483083,7.92481e-006 0.000169063,2.9718e-006 0.000333832,7.59461e-006 0.0004953,1.22174e-005 0.000161468,4.6228e-006 0.000307416,9.24561e-006 0.000439496,1.55194e-005 0.00013208,4.6228e-006 0.000237744,1.08966e-005 0.000316992,1.71704e-005 8.05689e-005,6.2738e-006 0.000122504,1.25476e-005 0.000127457,1.84912e-005l0 -0.000754838c-4.82092e-005,1.08966e-005 -0.00013208,2.04724e-005 -0.000251613,2.9718e-005 -0.000119863,9.24561e-006 -0.000261188,1.71704e-005 -0.000422656,2.3114e-005 -0.000163119,7.92481e-006 -0.000330861,1.25476e-005 -0.000504876,1.88214e-005 -0.000173685,4.6228e-006 -0.000338455,9.24561e-006 -0.0004953,1.22174e-005 -0.000155194,3.302e-006 -0.000287274,4.953e-006 -0.000394589,6.2738e-006 -0.000106985,1.651e-006 -0.000175336,3.302e-006 -0.000205054,3.302e-006l-0.000745262 0c-1.55194e-005,0 -6.37286e-005,0 -0.000146279,-1.651e-006 -8.22199e-005,-1.651e-006 -0.000187884,-2.9718e-006 -0.000315011,-6.2738e-006 -0.000129108,-1.651e-006 -0.000268783,-4.6228e-006 -0.000422656,-7.59461e-006 -0.000152222,-4.6228e-006 -0.000305765,-9.57581e-006 -0.000462611,-1.41986e-005 -0.000155524,-4.6228e-006 -0.000301473,-1.08966e-005 -0.000439827,-1.68402e-005 -0.000136703,-6.2738e-006 -0.000254584,-1.25476e-005 -0.000351003,-2.17932e-005 -9.77393e-005,-7.92481e-006 -0.00016444,-1.55194e-005 -0.000201752,-2.50952e-005l0 0.000754838c2.6416e-005,-7.59461e-006 9.01447e-005,-1.55194e-005 0.000192507,-2.1463e-005 0.000101041,-7.92481e-006 0.000229819,-1.41986e-005 0.000386664,-2.04724e-005 0.000156845,-5.9436e-006 0.000330861,-1.22174e-005 0.000520396,-1.68402e-005 0.000191186,-4.6228e-006 0.000386664,-9.57581e-006 0.000588747,-1.08966e-005 0.000203403,-3.302e-006 0.000400533,-4.6228e-006 0.000594691,-4.6228e-006l0 0.00110881c0,0.000211328 0,0.00044577 0,0.000702006 -1.3208e-006,0.000256235 -2.9718e-006,0.000518745 -4.6228e-006,0.000790499 -1.651e-006,0.000270434 -2.9718e-006,0.000532943 -6.2738e-006,0.000789179 -1.3208e-006,0.000256235 -5.9436e-006,0.000490678 -9.24561e-006,0.000702006 -4.6228e-006,0.000212649 -9.24561e-006,0.000388315 -1.55194e-005,0.000526339 -6.2738e-006,0.000140005 -1.25476e-005,0.000226848 -2.01422e-005,0.00026416l0.000969138 0zm0.00223645 0.000941071l0.000372796 0.000177318 0.00114612 -0.00188247 -0.000913334 -0.000410109 -0.000605587 0.00211526zm0.0128042 -0.00652311c-1.84912e-005,5.74548e-005 -5.25018e-005,0.000153873 -0.000102362,0.000290576 -5.1181e-005,0.000136703 -0.000111938,0.000299492 -0.000184912,0.000490678 -7.4295e-005,0.000192507 -0.000153543,0.000400863 -0.000240716,0.000624409 -8.68427e-005,0.000225197 -0.000176987,0.000455016 -0.000268783,0.000689458 -9.14655e-005,0.000236093 -0.000179959,0.000464592 -0.000267132,0.000686486 -8.68427e-005,0.000223876 -0.000167742,0.00042893 -0.000240716,0.000616814 -7.29742e-005,0.000187884 -0.000135052,0.000347701 -0.000186233,0.00047813 -4.98602e-005,0.000130429 -8.38709e-005,0.000222225 -0.000102362,0.000272085 -8.88239e-005,-0.000152222 -0.000195809,-0.00032954 -0.000318643,-0.000531292 -0.000124155,-0.000203403 -0.000256235,-0.000419354 -0.000399212,-0.000649174 -0.000142646,-0.00023147 -0.000287274,-0.000464592 -0.000433223,-0.000700685 -0.000145948,-0.000234442 -0.000285623,-0.000462611 -0.000419354,-0.000681863 -0.000133401,-0.000218923 -0.000253264,-0.000419354 -0.000358597,-0.000599313l-1.88214e-005 0c-0.000101041,0.000178638 -0.000211328,0.000372796 -0.000330861,0.000585445 -0.000121183,0.000211328 -0.00024699,0.0004286 -0.000375768,0.000653796 -0.000128778,0.000225197 -0.000254584,0.00044577 -0.000380391,0.000663372 -0.000124485,0.000217272 -0.000241046,0.000421005 -0.000349682,0.00061021 -0.000108636,0.000189535 -0.000203403,0.000354305 -0.000284302,0.000495631 -8.05689e-005,0.000141326 -0.000139675,0.000248311 -0.000179959,0.000321615 -2.01422e-005,-6.24078e-005 -5.74548e-005,-0.000171044 -0.000111938,-0.000326238 -5.2832e-005,-0.000155524 -0.000117881,-0.000344729 -0.000194158,-0.000565303 -7.59461e-005,-0.000222225 -0.000158496,-0.000462941 -0.00024699,-0.000720827 -8.84937e-005,-0.000259207 -0.000178638,-0.000525018 -0.000270104,-0.000793471 -9.17957e-005,-0.000268783 -0.000178638,-0.000529641 -0.00026416,-0.000781254 -8.38709e-005,-0.000251613 -0.000158496,-0.000480111 -0.000225197,-0.000686486 -6.67004e-005,-0.000206705 -0.000121183,-0.000376098 -0.000159817,-0.000508178l-0.000801396 0.000316992c4.19354e-005,0.00011491 9.93903e-005,0.000271755 0.000172365,0.000473837 7.29742e-005,0.000200101 0.000158496,0.000431572 0.000252933,0.00069243 9.64185e-005,0.000261188 0.00019746,0.000539217 0.000306096,0.000835737 0.000108636,0.000295199 0.000220574,0.000595021 0.000332512,0.000899135 0.000111608,0.000304445 0.000221895,0.000599644 0.000327559,0.000886918 0.000107315,0.000287274 0.000206705,0.000553085 0.000298171,0.000796773 9.17957e-005,0.000244018 0.000171044,0.000455016 0.000237744,0.000630682 6.67004e-005,0.000175336 0.000117881,0.000304445 0.000150571,0.000385013l3.73126e-005 0c5.1181e-005,-8.51917e-005 0.000121183,-0.000200101 0.000206705,-0.00034605 8.51917e-005,-0.000146279 0.000183261,-0.000310718 0.000291897,-0.000495631 0.000108636,-0.000186233 0.000223546,-0.000380391 0.000344729,-0.000587096 0.000119532,-0.000205054 0.000239395,-0.000410109 0.000358928,-0.000616484 0.000121183,-0.000205054 0.000234442,-0.000400863 0.000341427,-0.000587096 0.000108966,-0.000186563 0.000203734,-0.000351003 0.000288925,-0.000498602 8.38709e-005,-0.000145948 0.000150901,-0.000262509 0.000198781,-0.000349352 3.26898e-005,5.74548e-005 8.88239e-005,0.00014892 0.00016477,0.000271755 7.62763e-005,0.000124155 0.000166091,0.000270104 0.000271755,0.000437845 0.000105664,0.000169393 0.000217602,0.000349352 0.000338785,0.000542189 0.000120853,0.000192507 0.000243688,0.000388315 0.000366522,0.000583794 0.000122504,0.000195809 0.000239065,0.000383693 0.000351003,0.000562331 0.000110287,0.000178638 0.000209677,0.000338455 0.000294869,0.00047846 8.55219e-005,0.000141326 0.000150901,0.000251613 0.00019746,0.000333832l3.73126e-005 0c2.6416e-005,-5.2832e-005 7.29742e-005,-0.000150571 0.000138024,-0.000293548 6.70306e-005,-0.000144297 0.000145948,-0.000321615 0.000240716,-0.000531292 9.47675e-005,-0.000210998 0.000198781,-0.000442468 0.000312369,-0.000697383 0.000113259,-0.000254584 0.000229819,-0.000518745 0.000352324,-0.000793471 0.000121183,-0.000275057 0.000241046,-0.000548463 0.000360579,-0.000820217 0.000119532,-0.000271755 0.000232791,-0.000529641 0.000340106,-0.00077498 0.000106985,-0.000245339 0.000203403,-0.000465913 0.000288925,-0.00066007 8.38709e-005,-0.000195809 0.000152222,-0.000353975 0.000205054,-0.000475158 5.2832e-005,-0.000121183 8.22199e-005,-0.000194158 9.14655e-005,-0.000218923l-0.000782905 -0.000316992zm0.00498569 0.00495763c-0.000159817,9.24561e-006 -0.00032921,1.55194e-005 -0.000506197,2.01422e-005 -0.000176987,4.6228e-006 -0.000353975,7.92481e-006 -0.00052799,9.24561e-006 -0.000174016,1.651e-006 -0.000337134,3.302e-006 -0.000487706,1.651e-006 -0.000150571,0 -0.00027968,0 -0.000386664,-1.651e-006 -0.000107315,-1.3208e-006 -0.000183261,-1.3208e-006 -0.000225197,-1.3208e-006l0 -0.00188247c3.23596e-005,0 9.14655e-005,0 0.000176987,1.651e-006 8.38709e-005,1.3208e-006 0.000184912,2.9718e-006 0.000301143,4.6228e-006 0.000118212,1.3208e-006 0.000240716,2.9718e-006 0.000369824,2.9718e-006 0.00013208,3.302e-006 0.000260858,6.2738e-006 0.000385013,9.24561e-006 0.000122834,1.651e-006 0.000233121,4.953e-006 0.00032954,6.2738e-006 9.60883e-005,1.651e-006 0.000169063,3.302e-006 0.000217272,3.302e-006l-2.8067e-005 -0.000680543c-0.000104013,9.57581e-006 -0.000225197,1.88214e-005 -0.00036322,2.6416e-005 -0.000138354,9.57581e-006 -0.000281331,1.55194e-005 -0.00042893,2.34442e-005 -0.000147269,6.2738e-006 -0.000288595,1.25476e-005 -0.000422326,1.84912e-005 -0.000133401,4.6228e-006 -0.000248311,7.92481e-006 -0.000343078,1.08966e-005 -9.64185e-005,3.302e-006 -0.000160147,4.6228e-006 -0.000194158,4.6228e-006l0 -0.00193828c2.4765e-005,0 8.38709e-005,-1.3208e-006 0.000173685,-2.9718e-006 9.01447e-005,-1.651e-006 0.000202083,-4.6228e-006 0.000334163,-6.2738e-006 0.00013208,-2.9718e-006 0.000273406,-6.2738e-006 0.000423977,-9.24561e-006 0.000150571,-3.302e-006 0.000298171,-6.2738e-006 0.000442468,-9.24561e-006 0.000144628,-3.302e-006 0.000275057,-4.953e-006 0.000389966,-6.2738e-006 0.00011491,-3.302e-006 0.000205054,-3.302e-006 0.000267132,-3.302e-006l-3.73126e-005 -0.000670967c-6.20776e-005,4.6228e-006 -0.000153873,9.57581e-006 -0.000278029,1.71704e-005 -0.000124155,7.92481e-006 -0.000267132,1.55194e-005 -0.000431572,2.4765e-005 -0.000163119,9.57581e-006 -0.000335483,1.88214e-005 -0.000517424,2.8067e-005 -0.000179959,1.08966e-005 -0.000360248,2.01422e-005 -0.000537236,2.93878e-005 -0.000176987,9.57581e-006 -0.000340106,1.71704e-005 -0.000491008,2.50952e-005 -0.000150571,7.59461e-006 -0.000276378,1.38684e-005 -0.000377419,1.84912e-005 -0.000102362,3.302e-006 -0.000169063,6.2738e-006 -0.000200101,6.2738e-006 1.3208e-006,2.3114e-005 2.9718e-006,7.59461e-005 4.6228e-006,0.000161468 1.3208e-006,8.38709e-005 2.9718e-006,0.000189535 4.6228e-006,0.000315341 1.651e-006,0.000125806 4.6228e-006,0.000260858 6.2738e-006,0.000406807 1.3208e-006,0.000145948 2.9718e-006,0.000290576 4.6228e-006,0.000436525 1.3208e-006,0.000145948 2.9718e-006,0.00027968 4.6228e-006,0.000403835 0,0.000125806 1.651e-006,0.000228168 1.651e-006,0.000310718 1.3208e-006,8.38709e-005 1.3208e-006,0.000135052 1.3208e-006,0.000155194l0 0.00105301c0,3.26898e-005 0,0.000102692 0,0.000206705 0,0.000104013 0,0.000229819 -1.3208e-006,0.00037874 0,0.000150901 0,0.000309067 -1.651e-006,0.00047846 -1.651e-006,0.000167742 -3.302e-006,0.000333832 -4.6228e-006,0.000495631 -3.302e-006,0.000163119 -4.6228e-006,0.000309067 -7.92481e-006,0.000439496 -2.9718e-006,0.000130429 -7.59461e-006,0.00023147 -1.22174e-005,0.000302794 2.6416e-005,0 9.47675e-005,1.651e-006 0.000205054,4.6228e-006 0.000108636,3.302e-006 0.000248311,6.2738e-006 0.000414401,1.25476e-005 0.000166421,4.6228e-006 0.000348031,9.24561e-006 0.00054384,1.55194e-005 0.000195479,6.2738e-006 0.000392938,1.22174e-005 0.000591719,1.84912e-005 0.000198781,6.2738e-006 0.000383693,1.08966e-005 0.000557378,1.55194e-005 0.000174016,4.6228e-006 0.000321615,9.24561e-006 0.000442798,1.25476e-005 0.000121183,2.9718e-006 0.000203403,4.6228e-006 0.000245339,4.6228e-006l-2.8067e-005 -0.000708279z"/>
    <path id="_381449032" class="fil1" d="M0.153795 0.0695118c0,2.4765e-005 0,8.84937e-005 0,0.000192507 0,0.000102692 0,0.000233121 -1.3208e-006,0.000391617 0,0.000156845 -1.651e-006,0.000330861 -1.651e-006,0.000518745 -1.651e-006,0.000187884 -3.302e-006,0.000377419 -6.2738e-006,0.000571577 -1.651e-006,0.000194158 -4.6228e-006,0.000377419 -7.59461e-006,0.000552755 -3.302e-006,0.000174016 -7.92481e-006,0.000327889 -1.25476e-005,0.000459639 -4.6228e-006,0.00013208 -1.08966e-005,0.00023015 -1.71704e-005,0.000295199l0.000167742 0c0.000537566,-1.651e-006 0.0010157,-4.82092e-005 0.0014367,-0.000141326 0.000422326,-9.31165e-005 0.000779603,-0.000223546 0.00107315,-0.000392938 0.000292227,-0.000167742 0.000515773,-0.00036355 0.000669646,-0.000590068 0.000153543,-0.000225197 0.000229819,-0.000472186 0.00023114,-0.000739318 -1.3208e-006,-0.000177318 -4.49072e-005,-0.000335483 -0.000128778,-0.000476809 -8.38709e-005,-0.000140005 -0.000194158,-0.000261188 -0.000330861,-0.00036355 -0.000136703,-0.000102362 -0.000285623,-0.000183261 -0.000448742,-0.00024699 -0.000161468,-6.20776e-005 -0.000321615,-0.000102362 -0.000480111,-0.000124155l0 -1.88214e-005c0.000226848,-8.98145e-005 0.000414731,-0.000190856 0.000562331,-0.000302794 0.000145948,-0.000111608 0.000260858,-0.000226848 0.000344729,-0.000343078 8.25501e-005,-0.000118212 0.000140005,-0.000229819 0.000172365,-0.000335483 3.43408e-005,-0.000105664 4.98602e-005,-0.000198781 4.82092e-005,-0.000276708 1.651e-006,-8.84937e-005 -1.22174e-005,-0.000183261 -4.19354e-005,-0.000281 -2.93878e-005,-9.93903e-005 -8.38709e-005,-0.000198781 -0.000161468,-0.00029652 -7.92481e-005,-9.93903e-005 -0.000192507,-0.000191186 -0.000340106,-0.000276708 -0.000147599,-8.68427e-005 -0.000337134,-0.000161468 -0.000571577,-0.000223546 -0.000234442,-6.20776e-005 -0.000520396,-0.000106985 -0.000860502,-0.000133401 -0.000113259,-9.57581e-006 -0.00024699,-1.55194e-005 -0.000397561,-2.04724e-005 -0.000150571,-2.9718e-006 -0.000309067,-5.9436e-006 -0.000472186,-5.9436e-006 -0.000163119,-1.651e-006 -0.000321615,-1.651e-006 -0.000472186,-1.651e-006 4.6228e-006,2.93878e-005 9.24561e-006,8.68427e-005 1.41986e-005,0.000170714 2.9718e-006,8.38709e-005 7.59461e-006,0.000183261 1.05664e-005,0.000301473 3.302e-006,0.000116561 6.2738e-006,0.000240716 9.57581e-006,0.000369494 2.9718e-006,0.000130429 4.6228e-006,0.000254915 5.9436e-006,0.000376098 3.302e-006,0.000120853 3.302e-006,0.000226517 4.953e-006,0.000318313 1.3208e-006,9.01447e-005 1.3208e-006,0.000156845 1.3208e-006,0.00019713l0 0.000876021zm0.000782905 0.000298171c0.000265481,-1.22174e-005 0.00051082,-1.651e-006 0.000737667,2.9718e-005 0.000228499,3.10388e-005 0.000427279,8.22199e-005 0.000597993,0.000155194 0.000171044,7.29742e-005 0.000304445,0.000166091 0.000400863,0.00027968 9.60883e-005,0.00011491 0.000144297,0.000248311 0.000145948,0.000402184 -1.651e-006,0.000200432 -5.6134e-005,0.000372796 -0.000161468,0.000518745 -0.000105664,0.000144297 -0.00024699,0.000265481 -0.000427279,0.00036355 -0.000178638,9.60883e-005 -0.00037907,0.000172365 -0.000602615,0.000225197 -0.000223546,5.41528e-005 -0.000453365,8.84937e-005 -0.000691109,0.000104013l0 -0.00207828zm0 -0.00235763c0.000121183,-2.9718e-006 0.000256235,1.651e-006 0.000402184,1.08966e-005 0.000147599,9.24561e-006 0.000295199,2.93878e-005 0.000442798,5.91058e-005 0.000147599,3.10388e-005 0.000284302,7.59461e-005 0.000408458,0.000135052 0.000124155,5.91058e-005 0.000223546,0.000135052 0.000298171,0.00023147 7.59461e-005,9.60883e-005 0.00011491,0.0002143 0.000116561,0.000355626 -1.651e-006,0.000133401 -4.52374e-005,0.00026416 -0.000130429,0.000388315 -8.55219e-005,0.000125806 -0.000205054,0.000237414 -0.000357277,0.000338455 -0.000152222,0.000101041 -0.00032921,0.000180289 -0.000531292,0.000240716 -0.000200432,5.91058e-005 -0.000417703,9.17957e-005 -0.000649174,9.47675e-005l0 -0.0018544zm0.00506956 0.00079215c0,-0.000240716 2.9718e-006,-0.00044577 7.59461e-006,-0.000615163 4.953e-006,-0.000170714 9.57581e-006,-0.000310718 1.58496e-005,-0.000422326 5.9436e-006,-0.000110287 1.05664e-005,-0.000200432 1.38684e-005,-0.000267132l-0.000838709 0c0,4.82092e-005 0,0.000116561 -1.651e-006,0.000203403 0,8.84937e-005 -1.651e-006,0.000186233 -2.9718e-006,0.000293548 -1.651e-006,0.000108636 -1.651e-006,0.000217272 -3.302e-006,0.000327559 -1.3208e-006,0.000108966 -1.3208e-006,0.000209677 -1.3208e-006,0.000303124l0 0.0004286c0,0.000382042 5.9436e-006,0.000717525 2.01422e-005,0.00100645 1.38684e-005,0.000288925 3.56616e-005,0.000540538 6.37286e-005,0.000756489 2.93878e-005,0.0002143 6.50494e-005,0.000403505 0.000108636,0.000565303 4.49072e-005,0.000161468 9.77393e-005,0.000307416 0.000158496,0.000436194 6.04266e-005,0.000129108 0.000130429,0.000251613 0.000208026,0.000366522 0.000150571,0.000219253 0.00031369,0.000392938 0.000490678,0.000522047 0.000175667,0.000128778 0.000352654,0.000223546 0.000531292,0.000285623 0.000178638,6.07568e-005 0.00034638,0.000101041 0.000504876,0.000118212 0.000158166,1.84912e-005 0.000294869,2.6416e-005 0.000411429,2.4765e-005 0.000299822,0 0.000569926,-3.10388e-005 0.000809321,-9.14655e-005 0.000239065,-6.07568e-005 0.000456667,-0.000153873 0.000652145,-0.00027968 0.000195809,-0.000125806 0.000376098,-0.000284302 0.000542189,-0.000476809 0.000208026,-0.000244018 0.000366522,-0.000517094 0.000475158,-0.000823189 0.000107315,-0.000306096 0.000180289,-0.000653796 0.000217602,-0.00104673 3.73126e-005,-0.000392938 5.58038e-005,-0.00084036 5.2832e-005,-0.00134524l0 -0.000372796c0,-0.000209677 -1.651e-006,-0.000403835 -1.651e-006,-0.000580822 -1.651e-006,-0.000178638 -2.9718e-006,-0.000330861 -4.6228e-006,-0.000459639 -1.651e-006,-0.000127457 -3.302e-006,-0.000222225 -3.302e-006,-0.000282651l-0.000847954 0c6.2738e-006,0.000150571 1.55194e-005,0.000338455 2.6416e-005,0.000562331 1.25476e-005,0.000225197 1.88214e-005,0.000475158 2.01422e-005,0.000751536l0 0.000270434c3.302e-006,0.000416052 -2.9718e-006,0.000798094 -1.68402e-005,0.00114612 -1.25476e-005,0.000348031 -4.82092e-005,0.000658419 -0.000105664,0.000931825 -5.74548e-005,0.000273406 -0.00014925,0.000506527 -0.000278029,0.000699034 -9.17957e-005,0.000141326 -0.000203403,0.000268783 -0.000332512,0.000382042 -0.000128778,0.000113259 -0.000284302,0.000203403 -0.000462941,0.000270104 -0.000178308,6.70306e-005 -0.000389636,0.000101041 -0.000630352,0.000102692 -0.000302794,1.3208e-006 -0.000573228,-5.91058e-005 -0.00080767,-0.000183261 -0.000236093,-0.000122834 -0.000436525,-0.000316992 -0.000599644,-0.000580822 -7.92481e-005,-0.000129108 -0.000144297,-0.000267132 -0.000194158,-0.000413411 -5.1181e-005,-0.000147269 -9.14655e-005,-0.00031369 -0.000121183,-0.000496951 -2.77368e-005,-0.000184582 -4.7879e-005,-0.000399212 -5.87756e-005,-0.000641249 -1.25476e-005,-0.000242367 -1.71704e-005,-0.000523698 -1.71704e-005,-0.000843331l0 -0.000531292zm0.00725945 0.000950646c0,-0.000192837 1.3208e-006,-0.000388315 2.9718e-006,-0.000590398 1.651e-006,-0.000201752 4.6228e-006,-0.000397561 7.92481e-006,-0.000587096 2.9718e-006,-0.000189535 7.59461e-006,-0.00036355 1.05664e-005,-0.000521716 4.953e-006,-0.000156845 9.57581e-006,-0.000288925 1.25476e-005,-0.000392938 4.6228e-006,-0.000104013 9.24561e-006,-0.000171044 1.25476e-005,-0.000200432l-0.000904088 0c3.302e-006,2.8067e-005 6.2738e-006,8.68427e-005 9.24561e-006,0.000176987 1.651e-006,9.01447e-005 4.953e-006,0.000202083 7.92481e-006,0.000332512 2.9718e-006,0.000130429 6.2738e-006,0.000271755 9.24561e-006,0.000423977 3.302e-006,0.000150571 4.6228e-006,0.000301143 7.92481e-006,0.000450393 2.9718e-006,0.000150571 4.6228e-006,0.000290246 5.9436e-006,0.000417703 1.651e-006,0.000129108 3.302e-006,0.000234442 4.953e-006,0.000319964 1.3208e-006,8.55219e-005 1.3208e-006,0.000139675 1.3208e-006,0.000161468l0 0.00085753c0,3.73126e-005 0,0.000111608 0,0.000225197 -1.3208e-006,0.000113259 -1.3208e-006,0.000251613 -2.9718e-006,0.00041308 -1.651e-006,0.000161468 -1.651e-006,0.000330861 -3.302e-006,0.00051082 -1.3208e-006,0.000180289 -4.6228e-006,0.000354305 -5.9436e-006,0.000523698 -1.651e-006,0.000169063 -4.6228e-006,0.000318313 -6.2738e-006,0.000447091 -3.302e-006,0.000130429 -6.2738e-006,0.000223876 -9.24561e-006,0.000284302l0.000876021 0c-1.651e-006,-4.02844e-005 -4.953e-006,-0.000121183 -7.92481e-006,-0.000245339 -2.9718e-006,-0.000122834 -6.2738e-006,-0.000273406 -9.24561e-006,-0.000450393 -3.302e-006,-0.000176987 -6.2738e-006,-0.000366522 -9.24561e-006,-0.000568605 -3.302e-006,-0.000200432 -6.2738e-006,-0.000399212 -7.92481e-006,-0.000594691 -1.651e-006,-0.00019746 -2.9718e-006,-0.000374447 -2.9718e-006,-0.000535915l0 -0.0008572zm0.00243192 -0.00229258c3.302e-006,2.3114e-005 6.2738e-006,7.59461e-005 7.92481e-006,0.000161468 2.9718e-006,8.38709e-005 6.2738e-006,0.000189535 7.59461e-006,0.000315341 3.302e-006,0.000125806 4.953e-006,0.000260858 7.92481e-006,0.000406807 1.651e-006,0.000145948 2.9718e-006,0.000290576 4.6228e-006,0.000436525 2.9718e-006,0.000145948 4.6228e-006,0.00027968 4.6228e-006,0.000405486 1.651e-006,0.000124155 3.302e-006,0.000226517 3.302e-006,0.000309067 1.3208e-006,8.38709e-005 1.3208e-006,0.000135052 1.3208e-006,0.000155194l0 0.00105301c0,3.26898e-005 0,0.000102692 0,0.000206705 0,0.000104013 -1.3208e-006,0.000229819 -2.9718e-006,0.000380391 -1.651e-006,0.00014925 -3.302e-006,0.000307416 -6.2738e-006,0.000476809 -2.9718e-006,0.000167742 -7.59461e-006,0.000333832 -1.25476e-005,0.000495631 -5.9436e-006,0.000163119 -1.22174e-005,0.000309067 -2.1463e-005,0.000439496 -7.92481e-006,0.000130429 -1.88214e-005,0.00023147 -3.10388e-005,0.000302794 3.23596e-005,0 0.000105334,1.651e-006 0.000218923,4.6228e-006 0.00011491,3.302e-006 0.000254584,6.2738e-006 0.000422326,1.25476e-005 0.000167742,4.6228e-006 0.000349352,9.24561e-006 0.000545161,1.55194e-005 0.000194158,6.2738e-006 0.000391287,1.22174e-005 0.000587096,1.84912e-005 0.00019713,6.2738e-006 0.000380721,1.08966e-005 0.000551434,1.55194e-005 0.000170714,4.6228e-006 0.000316662,9.24561e-006 0.000434874,1.25476e-005 0.000119532,2.9718e-006 0.000200432,4.6228e-006 0.000240716,4.6228e-006l0 -0.000745592c-0.000228168,9.24561e-006 -0.000456667,1.71704e-005 -0.000683514,2.17932e-005 -0.000226517,4.6228e-006 -0.000439496,9.24561e-006 -0.000636626,1.08966e-005 -0.00019713,1.651e-006 -0.000364871,2.9718e-006 -0.000504876,4.6228e-006 -0.000139675,0 -0.000237414,0 -0.000290246,0l0 -0.00218989c0,-0.000202083 1.3208e-006,-0.000419354 4.6228e-006,-0.000649174 1.3208e-006,-0.00023147 6.2738e-006,-0.000462941 1.08966e-005,-0.000691109 4.6228e-006,-0.000229819 1.08966e-005,-0.000442798 1.68402e-005,-0.000639928 6.2738e-006,-0.000195809 1.25476e-005,-0.000361899 2.04724e-005,-0.00049398 5.9436e-006,-0.000133731 1.38684e-005,-0.000218923 2.1463e-005,-0.000256235l-0.000922579 0zm0.00462214 0.00303784c0,3.26898e-005 0,9.47675e-005 -1.3208e-006,0.000189535 0,9.31165e-005 -1.651e-006,0.000208026 -3.302e-006,0.000344729 -1.651e-006,0.000136703 -2.9718e-006,0.000284302 -6.2738e-006,0.000442798 -1.3208e-006,0.000158496 -4.6228e-006,0.000318313 -7.59461e-006,0.000479781 -3.302e-006,0.000163119 -6.2738e-006,0.000316992 -9.24561e-006,0.00046129 -4.6228e-006,0.000145948 -7.92481e-006,0.000271755 -1.25476e-005,0.000382042 -4.6228e-006,0.000108966 -9.24561e-006,0.000189535 -1.55194e-005,0.000244018 0.000319964,0 0.000647523,-1.88214e-005 0.000984657,-5.91058e-005 0.000335483,-3.86334e-005 0.000669316,-9.93903e-005 0.00100183,-0.000183261 0.000332512,-8.22199e-005 0.000650825,-0.000189535 0.000958241,-0.000319964 0.000307416,-0.000130429 0.000591719,-0.000287274 0.000852577,-0.000470535 0.000262509,-0.00018161 0.000491008,-0.000392938 0.000686486,-0.000630682 0.000195809,-0.000237414 0.000348031,-0.000506197 0.000456667,-0.000804368 0.000108966,-0.000298171 0.00016477,-0.000627711 0.000166421,-0.00098928 1.3208e-006,-9.34467e-005 -7.92481e-006,-0.000203734 -3.10388e-005,-0.000330861 -2.17932e-005,-0.000125806 -6.70306e-005,-0.000261188 -0.000133731,-0.000405486 -6.83514e-005,-0.000142977 -0.000169393,-0.000285623 -0.000302794,-0.0004286 -0.000133731,-0.000142977 -0.000310718,-0.000276378 -0.000531292,-0.000402184 -0.000221895,-0.000124485 -0.000496951,-0.00023147 -0.000827812,-0.000321615 -0.00032921,-8.84937e-005 -0.000723799,-0.000152222 -0.00118344,-0.000189535 -0.000184912,-1.38684e-005 -0.000374447,-2.4765e-005 -0.000568605,-3.10388e-005 -0.000194158,-6.2738e-006 -0.000383362,-1.08966e-005 -0.000569926,-1.38684e-005 -0.000184912,-1.651e-006 -0.000360248,-3.302e-006 -0.000521716,-1.651e-006 -0.000161468,0 -0.000304445,0 -0.000427279,0 6.2738e-006,3.89636e-005 1.25476e-005,0.000111938 1.71704e-005,0.000218923 4.6228e-006,0.000105664 7.59461e-006,0.00023147 1.25476e-005,0.000377419 2.9718e-006,0.000144628 5.9436e-006,0.00029685 7.59461e-006,0.000453695 2.9718e-006,0.000158166 4.6228e-006,0.000307416 6.2738e-006,0.000450393 1.651e-006,0.000142646 1.651e-006,0.00026383 2.9718e-006,0.00036322 0,0.000101041 0,0.00016477 0,0.000195809l0 0.000978383zm0.000801396 -0.00241343c0.000714553,-1.41986e-005 0.00132344,3.56616e-005 0.00182832,0.00014892 0.000504546,0.000113589 0.000891541,0.00029685 0.00115867,0.000549783 0.000268453,0.000253264 0.000403835,0.000582473 0.000405156,0.000987959 0,0.000233121 -4.49072e-005,0.000465913 -0.000133401,0.000697383 -9.01447e-005,0.000232791 -0.000225197,0.000455016 -0.000405486,0.000667665 -0.000180289,0.000211328 -0.000405486,0.000403835 -0.000677241,0.00057653 -0.000270104,0.000172365 -0.000587096,0.00031369 -0.000950316,0.000425298 -0.000361899,0.000111938 -0.000770357,0.000183261 -0.0012257,0.0002143l0 -0.00426784zm0.00953354 0.00166817c0,-0.000192837 1.3208e-006,-0.000388315 2.9718e-006,-0.000590398 1.651e-006,-0.000201752 4.6228e-006,-0.000397561 7.92481e-006,-0.000587096 2.9718e-006,-0.000189535 7.59461e-006,-0.00036355 1.05664e-005,-0.000521716 4.953e-006,-0.000156845 9.57581e-006,-0.000288925 1.25476e-005,-0.000392938 4.6228e-006,-0.000104013 9.24561e-006,-0.000171044 1.25476e-005,-0.000200432l-0.000904088 0c3.302e-006,2.8067e-005 6.2738e-006,8.68427e-005 9.24561e-006,0.000176987 1.651e-006,9.01447e-005 4.953e-006,0.000202083 7.92481e-006,0.000332512 2.9718e-006,0.000130429 6.2738e-006,0.000271755 9.24561e-006,0.000423977 3.302e-006,0.000150571 4.6228e-006,0.000301143 7.92481e-006,0.000450393 2.9718e-006,0.000150571 4.6228e-006,0.000290246 5.9436e-006,0.000417703 1.651e-006,0.000129108 3.302e-006,0.000234442 4.953e-006,0.000319964 1.3208e-006,8.55219e-005 1.3208e-006,0.000139675 1.3208e-006,0.000161468l0 0.00085753c0,3.73126e-005 0,0.000111608 0,0.000225197 -1.3208e-006,0.000113259 -1.3208e-006,0.000251613 -2.9718e-006,0.00041308 -1.651e-006,0.000161468 -1.651e-006,0.000330861 -3.302e-006,0.00051082 -1.3208e-006,0.000180289 -4.6228e-006,0.000354305 -5.9436e-006,0.000523698 -1.651e-006,0.000169063 -4.6228e-006,0.000318313 -6.2738e-006,0.000447091 -3.302e-006,0.000130429 -6.2738e-006,0.000223876 -9.24561e-006,0.000284302l0.000876021 0c-1.651e-006,-4.02844e-005 -4.953e-006,-0.000121183 -7.92481e-006,-0.000245339 -2.9718e-006,-0.000122834 -6.2738e-006,-0.000273406 -9.24561e-006,-0.000450393 -3.302e-006,-0.000176987 -6.2738e-006,-0.000366522 -9.24561e-006,-0.000568605 -3.302e-006,-0.000200432 -6.2738e-006,-0.000399212 -7.92481e-006,-0.000594691 -1.651e-006,-0.00019746 -2.9718e-006,-0.000374447 -2.9718e-006,-0.000535915l0 -0.0008572zm0.00438902 0.00325214c-2.9718e-006,-2.8067e-005 -7.59461e-006,-9.93903e-005 -1.38684e-005,-0.0002143 -6.2738e-006,-0.000113259 -1.25476e-005,-0.000262509 -2.01422e-005,-0.00044577 -7.92481e-006,-0.00018161 -1.55194e-005,-0.000389966 -2.50952e-005,-0.000621437 -7.59461e-006,-0.000232791 -1.38684e-005,-0.000479781 -2.17932e-005,-0.000743941 -5.9436e-006,-0.000262509 -1.05664e-005,-0.000532613 -1.55194e-005,-0.000808991 -4.6228e-006,-0.000275057 -5.9436e-006,-0.000548463 -5.9436e-006,-0.000818566l0 -0.00123c0.00011491,0 0.000249962,0 0.000402184,2.9718e-006 0.000153873,1.651e-006 0.00031369,4.6228e-006 0.000483083,7.92481e-006 0.000169063,2.9718e-006 0.000333832,7.59461e-006 0.0004953,1.22174e-005 0.000161468,4.6228e-006 0.000307416,9.24561e-006 0.000439496,1.55194e-005 0.00013208,4.6228e-006 0.000237744,1.08966e-005 0.000316992,1.71704e-005 8.05689e-005,6.2738e-006 0.000122504,1.25476e-005 0.000127457,1.84912e-005l0 -0.000754838c-4.82092e-005,1.08966e-005 -0.00013208,2.04724e-005 -0.000251613,2.9718e-005 -0.000119863,9.24561e-006 -0.000261188,1.71704e-005 -0.000422656,2.3114e-005 -0.000163119,7.92481e-006 -0.000330861,1.25476e-005 -0.000504876,1.88214e-005 -0.000173685,4.6228e-006 -0.000338455,9.24561e-006 -0.0004953,1.22174e-005 -0.000155194,3.302e-006 -0.000287274,4.953e-006 -0.000394589,6.2738e-006 -0.000106985,1.651e-006 -0.000175336,3.302e-006 -0.000205054,3.302e-006l-0.000745262 0c-1.55194e-005,0 -6.37286e-005,0 -0.000146279,-1.651e-006 -8.22199e-005,-1.651e-006 -0.000187884,-2.9718e-006 -0.000315011,-6.2738e-006 -0.000129108,-1.651e-006 -0.000268783,-4.6228e-006 -0.000422656,-7.59461e-006 -0.000152222,-4.6228e-006 -0.000305765,-9.57581e-006 -0.000462611,-1.41986e-005 -0.000155524,-4.6228e-006 -0.000301473,-1.08966e-005 -0.000439827,-1.68402e-005 -0.000136703,-6.2738e-006 -0.000254584,-1.25476e-005 -0.000351003,-2.17932e-005 -9.77393e-005,-7.92481e-006 -0.00016444,-1.55194e-005 -0.000201752,-2.50952e-005l0 0.000754838c2.6416e-005,-7.59461e-006 9.01447e-005,-1.55194e-005 0.000192507,-2.1463e-005 0.000101041,-7.92481e-006 0.000229819,-1.41986e-005 0.000386664,-2.04724e-005 0.000156845,-5.9436e-006 0.000330861,-1.22174e-005 0.000520396,-1.68402e-005 0.000191186,-4.6228e-006 0.000386664,-9.57581e-006 0.000588747,-1.08966e-005 0.000203403,-3.302e-006 0.000400533,-4.6228e-006 0.000594691,-4.6228e-006l0 0.00110881c0,0.000211328 0,0.00044577 0,0.000702006 -1.3208e-006,0.000256235 -2.9718e-006,0.000518745 -4.6228e-006,0.000790499 -1.651e-006,0.000270434 -2.9718e-006,0.000532943 -6.2738e-006,0.000789179 -1.3208e-006,0.000256235 -5.9436e-006,0.000490678 -9.24561e-006,0.000702006 -4.6228e-006,0.000212649 -9.24561e-006,0.000388315 -1.55194e-005,0.000526339 -6.2738e-006,0.000140005 -1.25476e-005,0.000226848 -2.01422e-005,0.00026416l0.000969138 0zm0.00246957 0l0.00104343 0 0 -0.00103452 -0.00104343 0 0 0.00103452zm0.00251613 0l0.00104343 0 0 -0.00103452 -0.00104343 0 0 0.00103452zm0.00251613 0l0.00104343 0 0 -0.00103452 -0.00104343 0 0 0.00103452zm0.00259042 0l0.000932155 0 0 -0.000913334 -0.000932155 0 0 0.000913334zm0.000736346 -0.00208753c1.38684e-005,-0.000212649 3.26898e-005,-0.000451714 5.41528e-005,-0.000714223 2.34442e-005,-0.000262509 4.82092e-005,-0.000537566 7.62763e-005,-0.00082484 2.6416e-005,-0.000287274 5.58038e-005,-0.000574548 8.55219e-005,-0.000860502 2.93878e-005,-0.000285623 5.74548e-005,-0.000559029 8.51917e-005,-0.000819887 2.8067e-005,-0.000261188 5.4483e-005,-0.000495631 7.79273e-005,-0.000703657 2.3114e-005,-0.000209677 4.32562e-005,-0.000380721 5.87756e-005,-0.000512471l-0.000996874 -4.68884e-005c9.24561e-006,0.000171044 1.55194e-005,0.000371475 2.01422e-005,0.000599644 2.9718e-006,0.000228499 5.9436e-006,0.000475158 5.9436e-006,0.000740969 0,0.000267132 0,0.000541859 0,0.000826161 -1.3208e-006,0.000284302 -1.3208e-006,0.000568605 -2.9718e-006,0.000851256 0,0.000282651 0,0.000554406 1.651e-006,0.000815264 2.9718e-006,0.000262509 6.2738e-006,0.000503225 1.22174e-005,0.000723799l0.000522047 -7.46252e-005zm0.00205946 0.00208753l0.000932155 0 0 -0.000913334 -0.000932155 0 0 0.000913334zm0.000736346 -0.00208753c1.38684e-005,-0.000212649 3.26898e-005,-0.000451714 5.41528e-005,-0.000714223 2.34442e-005,-0.000262509 4.82092e-005,-0.000537566 7.62763e-005,-0.00082484 2.6416e-005,-0.000287274 5.58038e-005,-0.000574548 8.55219e-005,-0.000860502 2.93878e-005,-0.000285623 5.74548e-005,-0.000559029 8.51917e-005,-0.000819887 2.8067e-005,-0.000261188 5.4483e-005,-0.000495631 7.79273e-005,-0.000703657 2.3114e-005,-0.000209677 4.32562e-005,-0.000380721 5.87756e-005,-0.000512471l-0.000996874 -4.68884e-005c9.24561e-006,0.000171044 1.55194e-005,0.000371475 2.01422e-005,0.000599644 2.9718e-006,0.000228499 5.9436e-006,0.000475158 5.9436e-006,0.000740969 0,0.000267132 0,0.000541859 0,0.000826161 -1.3208e-006,0.000284302 -1.3208e-006,0.000568605 -2.9718e-006,0.000851256 0,0.000282651 0,0.000554406 1.651e-006,0.000815264 2.9718e-006,0.000262509 6.2738e-006,0.000503225 1.22174e-005,0.000723799l0.000522047 -7.46252e-005z"/>
   </g>
  </g>
  <g id="_926661152">
   <g>
    <path id="_926661944" class="fil3" d="M0.00630022 0.0526296c0.00218989,-0.00232956 0.00456766,-0.00444086 0.00715841,-0.00630121 0,0 -0.00611894,-0.0205183 0.0163789,-0.0305977 0,0 0.0257384,-0.0120592 0.0390571,0.0183585l0.00211559 0.000545161c0,0 -0.00547901,-0.0220802 -0.0298455,-0.024349 -0.0249846,-0.00232362 -0.0423802,0.0190826 -0.0348645,0.0423442z"/>
    <path id="_926661704" class="fil3" d="M0.0697043 0.0396389c0,0 0.00205946,0.01451 -0.0143224,0.0249945 0,0 0.0179731,-0.00299558 0.0165691,-0.0252752l-0.00224668 0.00028067z"/>
   </g>
   <g>
    <path id="_926662904" class="fil4" d="M0.0270176 0.0715603c0,0 -0.00917428,-0.00449303 -0.00627215,-0.0130115 0.00290213,-0.00851884 0.0243391,-0.0226544 0.0522354,-0.0209694 0,0 -0.0175921,-0.00682293 -0.0416825,0.00302628 -0.0200656,0.00820382 -0.0286122,0.0257718 -0.00428072,0.0309546z"/>
    <path id="_926662424" class="fil4" d="M0.0180306 0.0455366c0.000694741,-0.0104257 0.00671099,-0.0183311 0.0164568,-0.0217308 0.0092565,-0.00322936 0.0185744,-0.00171605 0.0263239,0.00675292 -0.0111301,-0.00788584 -0.0274545,-0.00602582 -0.0327641,0.00898673 0,0 -0.00692727,0.00337002 -0.0100166,0.00599115z"/>
    <path id="_926662568" class="fil4" d="M0.0276529 0.0533224c0.00431308,0.0128864 0.0186038,0.0196591 0.0311696,0.0118638 -0.00984954,0.011205 -0.0262575,0.00918155 -0.036254,-0.00427378 0.000776301,-0.00303982 0.00253891,-0.0055325 0.00508442,-0.00758998z"/>
   </g>
  </g>
 </g>
</svg>
